<svg width="262" height="104" viewBox="0 0 262 104" fill="none" xmlns="http://www.w3.org/2000/svg">
<g clip-path="url(#clip0)">
<path d="M262.033 29.621C257.758 26.3227 254.038 23.1432 250.017 20.392C236.628 11.0187 220.461 6.44745 204.144 7.42081C182.295 8.61803 163.419 16.7685 148.445 32.9667C140.007 42.0925 134.963 52.8755 134.431 65.4741C134.217 70.6436 134.899 75.7101 137.604 80.2532C140.443 85.0817 144.512 88.0154 150.436 87.4683C152.136 87.3714 153.764 86.7531 155.1 85.6976C156.435 84.642 157.413 83.2005 157.899 81.5695C159.105 78.2157 158.113 75.4009 155.448 73.1016C154.298 72.1025 153.196 71.056 152.125 69.9777C151.308 69.2439 150.742 68.2723 150.508 67.1996C150.273 66.1269 150.381 65.0074 150.817 63.9995C151.721 61.6209 153.085 59.7577 155.758 59.3217C158.129 58.9098 160.57 59.2135 162.769 60.1939C166.472 61.8441 169.532 64.6615 171.481 68.2155C173.431 71.7694 174.162 75.864 173.563 79.8726C171.786 91.7656 163.721 100.963 152.578 103.357C144.758 105.046 137.405 103.286 130.878 98.7427C120.084 91.2342 115.556 80.507 115.587 67.6467C115.587 53.288 121.139 40.9826 130.315 30.271C143.322 15.1273 160.04 6.12839 179.4 2.02135C200.021 -2.35526 219.776 0.300766 238.462 10.2671C246.004 14.2948 257.036 22.9451 262.033 29.621Z" fill="white"/>
<path d="M135.065 16.7375C134.272 17.1577 133.439 17.6176 132.598 17.9903C120.582 23.358 112.572 32.579 107.219 44.3689C103.071 53.5344 100.938 63.2864 98.8517 73.0545C98.13 76.4479 97.3369 79.8335 96.4724 83.1793C96.0847 84.6479 95.4918 86.0545 94.7116 87.3578C93.1888 89.8474 91.0001 90.1962 88.6208 88.4836C86.5826 87.0326 85.5118 84.908 84.7742 82.5928C83.2192 77.3565 83.0092 71.8128 84.1635 66.4738C88.1924 45.2568 100.612 30.557 119.924 21.4153C124.675 19.0225 129.792 17.4415 135.065 16.7375Z" fill="white"/>
<path d="M241.673 23.5322C239.087 22.7393 236.533 21.8988 233.916 21.2724C225.308 19.0364 216.176 20.0941 208.307 24.2379C205.029 25.966 202.124 28.3235 199.758 31.1755C196.907 34.3745 195.384 38.5398 195.499 42.8226C195.554 44.773 195.744 46.7157 195.848 48.6661C195.935 50.2518 196.109 51.9247 196.038 53.5421C195.911 56.4837 194.658 57.6176 191.747 57.6493C183.816 57.7286 176.916 51.116 176.409 42.8702C175.973 35.782 179.201 30.3349 184.173 25.6967C189.146 21.0584 195.38 18.7353 201.875 17.2051C215.294 14.0337 228.174 15.3497 240.285 22.2635C240.798 22.6247 241.274 23.0366 241.705 23.4927L241.673 23.5322Z" fill="white"/>
<path d="M93.0225 32.4362C91.2856 33.5066 89.4933 34.4899 87.8119 35.6475C80.3727 40.7932 75.2649 47.9131 71.3153 55.8656C68.2777 61.9706 65.7637 68.3292 62.9006 74.5374C61.7854 77.1231 60.4838 79.6245 59.0064 82.0219C57.0791 84.9952 54.9934 84.9954 52.7886 82.2283C49.9572 78.6683 49.5608 74.4898 50.1239 70.1766C50.9307 64.566 53.0948 59.237 56.4288 54.6523C62.1867 46.4223 69.9515 40.6582 79.0166 36.567C83.4421 34.569 87.9784 32.8009 93.0225 32.4362Z" fill="white"/>
<path d="M56.7305 44.4716C53.9626 47.0881 51.6942 49.3875 49.2514 51.4886C43.208 56.6818 36.7363 61.1931 29.0274 63.6351C22.635 65.6648 16.2744 66.0535 9.99306 63.2468C7.16819 62.0544 4.7066 60.1404 2.85518 57.6968C2.07405 56.6587 1.41685 55.5328 0.89645 54.3426C0.0636978 52.4159 -0.602615 50.1642 0.785305 48.4596C2.17323 46.7549 4.37779 47.5638 6.28123 47.976C10.6195 48.9275 14.9343 50.0375 19.3042 50.7828C31.1531 52.8046 42.391 50.6798 53.1375 45.5103L55.4773 44.4004C55.8963 44.3871 56.3157 44.4108 56.7305 44.4716Z" fill="white"/>
<path d="M241.705 23.4926L243.108 24.0156L243.156 23.9525L241.673 23.5321L241.705 23.4926Z" fill="white"/>
<path d="M243.108 24.0156C243.122 23.9927 243.138 23.9717 243.156 23.9525L243.108 24.0156Z" fill="white"/>
</g>
<defs>
<clipPath id="clip0">
<rect width="262" height="104" fill="white" transform="translate(262 104) rotate(-180)"/>
</clipPath>
</defs>
</svg>
