<svg width="492" height="488" viewBox="0 0 492 488" fill="none" xmlns="http://www.w3.org/2000/svg">
<path d="M54.7444 235C-15.2556 146.2 92.911 41.3333 155.744 0H553.244C566.911 115.333 586.044 348.7 553.244 359.5C512.244 373 491.744 472 448.744 485C405.744 498 185.244 445.5 125.744 405.5C66.2444 365.5 142.244 346 54.7444 235Z" fill="#EEEEEE" fill-opacity="0.3"/>
<path d="M20.4102 244.655C-42.4056 162.787 76.6153 49.1067 133 11H500.5C512.764 117.33 514.5 353.5 467.748 359.436C429.217 364.328 412.56 463.153 373.973 475.139C335.386 487.124 137.517 438.722 84.1233 401.845C30.7299 364.967 98.9299 346.99 20.4102 244.655Z" stroke="#EEEEEE" stroke-opacity="0.3" stroke-width="4"/>
</svg>
