<svg width="133" height="39" viewBox="0 0 133 39" fill="none" xmlns="http://www.w3.org/2000/svg">
<path d="M8.848 38.384C6.16 38.384 4.064 37.52 2.56 35.792C1.056 34.064 0.304 31.712 0.304 28.736V13.952H10.48V28.304C10.48 29.04 10.672 29.616 11.056 30.032C11.472 30.416 12 30.608 12.64 30.608C13.28 30.608 13.936 30.416 14.608 30.032L15.136 36.704C14.432 37.248 13.504 37.664 12.352 37.952C11.232 38.24 10.064 38.384 8.848 38.384ZM5.392 10.352C3.888 10.352 2.608 9.888 1.552 8.96C0.528 8 0.0160002 6.832 0.0160002 5.456C0.0160002 4.08 0.56 2.928 1.648 2C2.736 1.072 3.984 0.607998 5.392 0.607998C6.864 0.607998 8.128 1.088 9.184 2.048C10.272 3.008 10.816 4.144 10.816 5.456C10.816 6.864 10.272 8.032 9.184 8.96C8.096 9.888 6.832 10.352 5.392 10.352ZM17.9313 14.288H27.5793V19.184C29.4353 15.472 32.3793 13.616 36.4113 13.616C39.4833 13.616 41.8833 14.72 43.6113 16.928C45.3713 19.104 46.2513 22.128 46.2513 26V38H36.1713V24.992C36.1713 23.616 35.8673 22.56 35.2593 21.824C34.6833 21.088 33.8673 20.72 32.8113 20.72C32.0433 20.72 31.2913 20.976 30.5553 21.488C29.8193 21.968 29.2113 22.672 28.7313 23.6C28.2833 24.528 28.0593 25.584 28.0593 26.768V38H17.9313V14.288ZM47.8293 13.952H58.9653L62.6613 28.352L66.2613 13.952H75.0453L67.4133 38H55.7493L47.8293 13.952ZM86.0043 38.384C83.3163 38.384 81.2203 37.52 79.7163 35.792C78.2123 34.064 77.4603 31.712 77.4603 28.736V13.952H87.6363V28.304C87.6363 29.04 87.8283 29.616 88.2123 30.032C88.6283 30.416 89.1563 30.608 89.7963 30.608C90.4363 30.608 91.0923 30.416 91.7643 30.032L92.2923 36.704C91.5883 37.248 90.6603 37.664 89.5083 37.952C88.3883 38.24 87.2203 38.384 86.0043 38.384ZM82.5483 10.352C81.0443 10.352 79.7643 9.888 78.7083 8.96C77.6843 8 77.1723 6.832 77.1723 5.456C77.1723 4.08 77.7163 2.928 78.8043 2C79.8923 1.072 81.1403 0.607998 82.5483 0.607998C84.0203 0.607998 85.2843 1.088 86.3403 2.048C87.4283 3.008 87.9723 4.144 87.9723 5.456C87.9723 6.864 87.4283 8.032 86.3403 8.96C85.2523 9.888 83.9883 10.352 82.5483 10.352ZM105.084 38.384C102.268 38.384 100.076 37.584 98.5079 35.984C96.9399 34.352 96.1559 32.112 96.1559 29.264V19.904H93.0839V13.952H96.8759L101.34 4.88H106.188V13.952H111.756V19.904H106.188V28.064C106.188 28.864 106.444 29.488 106.956 29.936C107.468 30.384 108.188 30.608 109.116 30.608C109.98 30.608 110.764 30.416 111.468 30.032L111.852 36.752C111.052 37.232 110.012 37.632 108.732 37.952C107.484 38.24 106.268 38.384 105.084 38.384ZM125.943 38.384C123.127 38.384 120.935 37.584 119.367 35.984C117.799 34.352 117.015 32.112 117.015 29.264V19.904H113.943V13.952H117.735L122.199 4.88H127.047V13.952H132.615V19.904H127.047V28.064C127.047 28.864 127.303 29.488 127.815 29.936C128.327 30.384 129.047 30.608 129.975 30.608C130.839 30.608 131.623 30.416 132.327 30.032L132.711 36.752C131.911 37.232 130.871 37.632 129.591 37.952C128.343 38.24 127.127 38.384 125.943 38.384Z" fill="#F037A5"/>
</svg>
