<svg width="559" height="118" viewBox="0 0 559 118" fill="none" xmlns="http://www.w3.org/2000/svg">
<path d="M291.475 34.0806C294.829 31.9566 299.975 30.8055 300.051 24.3215C300.136 17.1266 292.373 19.2184 293.874 25.2788C294.976 29.7297 293.385 31.0849 291.209 33.7022C291.136 33.7902 291.131 33.9248 291.197 34.0192C291.265 34.1146 291.383 34.1391 291.475 34.0806Z" fill="white"/>
<path d="M267.527 34.0805C267.622 34.14 267.739 34.1132 267.805 34.0192C267.968 33.7859 267.71 33.601 267.268 33.0776C262.033 26.8959 267.135 25.0002 264.591 21.2488C262.89 18.7411 258.891 19.193 258.952 24.3215C259.028 30.8096 264.185 31.9638 267.527 34.0805Z" fill="white"/>
<path d="M301.275 26.7984C305.346 24.2245 311.15 23.0241 311.239 15.4791C311.336 7.16832 302.387 9.59112 304.119 16.5826C305.406 21.7779 303.554 23.3628 301.01 26.4194C300.937 26.5073 300.932 26.6419 300.998 26.7364C301.063 26.8297 301.18 26.8572 301.275 26.7984Z" fill="white"/>
<path d="M257.727 26.7984C257.822 26.8572 257.94 26.8297 258.005 26.7364C258.168 26.5031 257.921 26.3293 257.381 25.6928C251.247 18.4536 257.223 16.2939 254.264 11.9297C252.305 9.04087 247.694 9.54143 247.764 15.4791C247.853 23.023 253.655 24.2231 257.727 26.7984Z" fill="white"/>
<path d="M522.654 64.3638C509.294 64.4256 492.318 63.4823 474.252 61.714L474.182 61.6585L474.153 61.7042C472.855 61.5771 471.553 61.446 470.245 61.3103C481.129 60.5205 511.52 59.3145 512.136 47.6881C512.498 40.816 505.986 40.7297 504.297 44.2884C503.029 46.9573 504.758 50.6686 507.957 49.1811C510.668 47.9215 509.369 44.6492 507.777 44.5123C506.727 44.4251 505.388 45.4845 505.912 45.7896C506.016 45.8496 506.145 45.7992 506.204 45.687C506.295 45.5118 507.08 44.9028 507.808 45.0059C508.882 45.1587 510.067 47.6717 507.791 48.7312C504.914 50.07 503.64 46.711 504.681 44.5184C506.161 41.4042 512.038 41.3254 511.702 47.6601C511.106 58.9061 480.333 60.091 469.811 60.8545C467.052 61.0548 468.129 61.0989 464.168 60.6537C465.991 56.2552 465.29 50.8895 462.26 47.6832C454.268 39.224 442.743 52.9743 437.396 57.1087C431.309 56.1647 425.864 55.2081 421.349 54.2929C418.743 45.1743 426.678 40.5972 431.162 44.1734C434.341 46.7077 434.676 53.0296 429.316 53.486C424.996 53.8536 424.886 48.7085 426.699 47.4821C427.812 46.7285 429.45 47.0378 429.665 47.2323C429.759 47.3172 429.896 47.2999 429.971 47.1952C430.413 46.5836 427.915 46.0898 426.475 47.0646C424.299 48.5373 424.521 54.3796 429.349 53.9726C435.057 53.487 434.965 46.6081 431.415 43.7766C426.665 39.9893 418.358 44.7185 420.866 54.1942C409.696 51.9027 411.8 51.8306 398.124 46.892C399.795 32.5588 381.783 15.4448 369.774 32.5257L370.076 32.8711C385.13 20.0758 393.955 34.328 395.06 45.8006C377.792 39.7407 361.822 35.6501 347.253 33.5504C346.905 29.4132 345.136 25.846 341.975 22.922C335.078 16.5411 323.301 21.7807 323.346 31.9122C310.796 32.1231 297.719 34.2588 286.431 40.1241C285.305 36.0168 282.826 32.845 279.502 30.6613C276.241 32.8023 273.716 35.9508 272.572 40.1239C261.282 34.2576 248.201 32.1231 235.657 31.912C235.68 26.748 232.237 21.6825 226.698 20.4313C218.688 18.6229 212.396 25.8733 211.75 33.5501C197.184 35.6499 181.214 39.7402 163.947 45.7997C165.061 34.2483 173.916 20.1092 188.932 32.8709L189.234 32.5255C177.312 15.5689 159.183 32.2927 160.883 46.8908C147.167 51.8446 149.321 51.9001 138.14 54.194C141.691 40.7731 124.702 38.3855 125.129 49.7405C125.3 54.332 132.895 55.7763 133.697 51.1848C134.621 45.9034 129.807 46.1847 129.067 46.8516C128.844 47.0534 129.116 47.4338 129.34 47.2316C129.675 46.9288 134.133 46.1626 133.271 51.0908C132.575 55.0654 125.715 53.7767 125.563 49.7195C125.163 38.9966 141.323 41.4646 137.656 54.2924C133.142 55.2077 127.696 56.1642 121.609 57.108C118.742 54.8909 116.104 52.3053 114.387 50.7609C99.3729 37.2666 90.7991 50.9102 94.8378 60.653C89.6932 61.2312 47.9695 60.2499 47.3016 47.6596C46.8537 39.2007 57.0642 42.3088 54.2087 48.0162C53.2096 50.0143 49.412 48.7277 49.9621 46.5449C50.6417 43.8466 52.6695 45.4358 52.7999 45.6865C52.9445 45.9643 53.3024 45.7467 53.194 45.4799C52.956 44.8953 50.3533 43.1998 49.5446 46.4117C48.8459 49.1858 53.3527 50.7248 54.5888 48.2537C57.8361 41.7679 46.3764 38.3967 46.8685 47.6874C47.4854 59.3521 77.9988 60.5289 88.7598 61.3096C87.4542 61.4448 86.1543 61.5757 84.8589 61.7026L84.8312 61.6583L84.7625 61.7122C66.6908 63.4811 49.7123 64.4249 36.3505 64.3631C36.2306 64.3626 36.1326 64.4713 36.1322 64.6059C36.1299 65.3061 59.5913 64.6409 84.0491 62.2724L78.5419 66.5899C77.9156 65.753 75.433 65.7708 75.2249 65.878C67.5757 69.8697 58.9305 72.8661 51.1146 69.5718C50.3772 69.2597 50.8291 76.8869 62.0023 74.5089C59.615 76.2293 56.2182 77.2431 53.3887 78.8334C52.0034 79.612 47.2392 85.6898 47.4392 86.0934C47.5247 86.2678 47.4098 86.1909 49.6136 86.1797C55.2338 86.1496 55.2384 86.2513 60.0041 82.2662C61.5579 80.9669 63.1562 79.6304 64.8324 78.7669C57.7968 86.909 60.5188 89.6022 61.6567 91.8272C61.7583 92.0201 62.0198 91.9732 62.0589 91.7525C63.3337 84.5732 68.6762 79.4496 73.8419 74.4944C74.0479 74.2968 78.4374 70.0967 78.5075 69.8023C78.8086 68.5187 78.9441 67.6354 78.7558 67.017L84.9155 62.1878C88.2599 61.8596 91.6401 61.5039 95.0427 61.1206C99.0546 69.778 114.546 70.1092 123.266 69.4417C113.754 72.0089 105.465 74.8809 101.295 79.5667C97.2729 78.8982 94.292 81.2391 94.6025 86.1123C94.2646 86.1864 93.8301 86.2154 93.4743 86.1885C94.2931 83.794 92.5547 81.2515 90.4391 81.2515C87.6232 81.2515 87.4174 85.1027 82.9049 85.1027C81.4346 85.1027 80.4429 84.7181 78.5995 84.6432C80.7709 90.04 84.0312 89.0207 87.7468 88.8474C89.4664 89.5376 88.3887 91.6877 87.1711 91.701C85.3374 91.1209 83.7424 91.6669 82.5471 93.1371C79.4282 96.9734 81.699 99.6796 80.4269 104.046C80.217 104.764 80.2074 104.849 80.0659 105.551C82.2115 104.364 83.4815 104.34 86.6143 104.246C94.5808 103.558 90.6757 94.7398 93.4105 94.7398C94.726 94.7398 94.3049 96.7651 94.1778 97.6377C93.6562 101.203 93.8497 103.392 98.2463 106.387C98.4602 102.956 97.878 97.9951 99.2094 97.1869C101.847 95.3222 102.629 89.0986 96.8764 89.3297C96.8968 88.9666 96.9303 88.5136 97.0657 88.1479C100.932 88.598 102.721 83.9971 101.624 79.8867C110.194 70.3003 136.918 68.2957 154.075 60.9452C157.48 59.4865 160.773 58.1082 163.961 56.8052C165.9 60.3793 168.532 63.1942 171.639 65.2819C168.486 68.2516 165.906 71.1773 163.854 74.092C163.136 73.396 161.807 73.912 160.43 74.4632C159.728 74.7472 150.383 87.2323 138.692 86.9531C137.912 86.8811 139.565 90.3152 143.183 90.3152C145.187 90.3152 147.619 89.393 150.424 87.5703C146.28 93.5334 143.078 91.9154 140.041 103.657C140.018 103.747 140.043 103.844 140.105 103.907C140.238 104.04 146.541 101.621 147.563 100.446C150.067 97.5685 151.796 93.3055 154.352 90.5366C150.12 100.828 153.48 102.361 155.213 104.039C155.364 104.186 155.599 104.044 155.571 103.82C153.943 90.9674 166.509 79.0489 164.136 74.4771C166.205 71.5232 168.823 68.5567 172.036 65.5429C180.005 70.6693 193.657 72.5465 212.471 62.1983C206.615 70.5634 203.808 81.1997 204.365 81.3632C204.479 81.3973 204.6 81.3219 204.631 81.189C206.419 73.515 209.431 67.0616 213.281 61.7464C213.31 61.7299 213.433 61.6618 213.607 61.5631C213.741 61.3257 213.877 61.1071 214.133 60.7845L214.39 60.6093C214.416 60.5202 214.425 60.485 214.449 60.4092C215.74 58.9551 218.272 56.9678 221.768 54.8827C230.02 60.0166 242.618 58.5192 245.037 57.5943C250.464 55.5429 257.341 52.6748 265.941 52.6281V52.6286C266.238 52.6421 266.533 52.6605 266.827 52.6825C263.174 52.999 254.457 56.2624 251.592 63.7104C248.942 67.3762 245.157 70.5144 242.404 71.349C239.995 67.95 236.454 67.2223 233.642 70.9781C233.346 70.7624 233.024 70.4505 232.784 70.1524C235.756 68.6064 235.152 62.6797 230.599 63.2547C226.164 63.1051 225.128 59.8457 223.066 57.4345C221.328 62.829 223.926 64.497 227.023 67.5922C227.83 69.4307 225.717 70.1288 224.837 69.1909C222.436 64.5536 217.337 67.1796 215.91 69.1685C213.655 72.4378 212.935 72.2736 211.136 73.5889C217.335 75.8228 217.897 84.1415 225.656 76.432C226.575 75.666 227.365 75.9165 227.613 76.5335C228.018 77.5393 226.975 78.2598 226.181 78.9211C223.579 81.0857 222.378 82.8106 223.669 88.3781C225.851 86.1906 228.322 82.491 229.844 82.491C229.875 82.491 230.428 82.6135 230.841 82.6135C233.879 82.6135 237.152 78.9948 233.277 75.0631C233.518 74.8184 233.823 74.5191 234.147 74.3621C236.667 77.7357 240.876 75.7775 242.646 71.7796C245.235 70.9459 248.541 68.3176 251.15 65.0463C248.894 73.0991 253.115 82.7497 260.619 82.7497C264.638 82.7497 268.547 79.9721 269.697 75.5147C271.32 69.221 266.33 61.8097 259.952 66.6046C254.554 70.6635 258.707 77.0455 262.051 76.5694C264.267 76.2536 266.399 73.5068 265.646 73.3146C265.529 73.2848 265.413 73.3673 265.386 73.4989C265.299 73.932 263.807 75.8274 261.996 76.0854C259.063 76.5041 255.215 70.753 260.195 67.0093C266.284 62.4313 270.771 69.5996 269.28 75.3789C267.773 81.2186 261.337 83.8758 256.745 81.2534C251.559 78.2922 249.619 70.1617 251.966 63.9689C252.032 63.8781 252.082 63.828 252.067 63.7074C254.539 57.5603 260.253 55.1358 264.624 53.5408C267.178 52.8754 270.066 52.898 273.334 53.9138C274.985 58.8702 276.751 60.747 279.498 64.7666C282.25 60.7383 284.008 58.8772 285.661 53.914C295.645 50.8102 304.526 57.7317 306.93 63.706C306.914 63.8278 306.965 63.8791 307.032 63.9717C310.807 73.9404 303.563 85.7428 294.569 81.3705C284.925 76.6814 290.347 60.653 298.802 67.0096C303.789 70.7584 299.902 76.4997 297 76.0857C295.189 75.8277 293.697 73.9323 293.61 73.4991C293.584 73.3676 293.467 73.2848 293.35 73.3148C292.595 73.508 294.732 76.2543 296.945 76.5697C300.294 77.0464 304.439 70.6607 299.044 66.6049C292.666 61.8092 287.677 69.2222 289.299 75.5149C290.449 79.9723 294.359 82.7499 298.378 82.7499C305.888 82.7499 310.099 73.0849 307.848 65.0486C310.457 68.3193 313.762 70.9466 316.35 71.78C318.105 75.7432 322.317 77.7527 324.849 74.3626C325.174 74.5196 325.479 74.8186 325.719 75.0635C321.459 79.3864 325.848 83.2544 328.923 82.5255C330.385 82.0719 333.049 86.0948 335.327 88.3788C337.026 81.0521 334.107 80.3117 331.656 77.9011C330.954 76.996 331.381 75.9569 332.238 75.9569C334.232 75.9569 336.857 82.8775 342.348 77.7627C344.672 75.3689 345.602 74.4034 347.86 73.5896C346.053 72.268 345.339 72.4359 343.086 69.1692C341.688 67.2204 336.576 64.5238 334.159 69.1916C333.283 70.1263 331.164 69.4366 331.973 67.5929C335.026 64.5422 337.679 62.8644 335.93 57.4352C333.357 60.4442 332.885 63.2173 327.806 63.2173C323.779 63.2173 323.387 68.6836 326.212 70.1533C325.972 70.4514 325.65 70.7633 325.354 70.979C322.531 67.2095 318.986 67.972 316.592 71.3499C313.84 70.5156 310.056 67.3788 307.406 63.7142C305.04 57.5596 297.799 53.1709 292.169 52.6834C292.463 52.6615 292.758 52.6431 293.054 52.6295V52.6291C307.502 52.7077 309.589 58.5348 322.181 58.5348C327.229 58.5348 332.835 57.6174 337.23 54.883C340.726 56.9687 343.259 58.9563 344.55 60.4104C344.57 60.4736 344.591 60.5468 344.609 60.6105L344.866 60.7857C345.123 61.1101 345.258 61.3259 345.392 61.5643C345.563 61.6611 345.7 61.7376 345.715 61.746C349.565 67.0616 352.578 73.5154 354.366 81.1902C354.397 81.3226 354.518 81.3985 354.632 81.3644C355.135 81.2168 352.577 70.8428 346.525 62.1978C365.331 72.5425 378.985 70.6754 386.962 65.545C390.175 68.5584 392.792 71.5244 394.86 74.4778C394.56 75.0556 394.464 75.9422 394.388 77.0023C394.367 77.3053 397.284 82.9305 397.405 83.1637C400.816 89.7568 404.343 96.5739 403.425 103.821C403.398 104.041 403.629 104.188 403.783 104.039C405.516 102.362 408.877 100.829 404.644 90.5368C405.97 91.9737 407.084 93.8278 408.166 95.6301C411.491 101.17 411.552 101.079 416.815 103.181C418.178 103.725 419.114 104.272 418.956 103.657C415.92 91.9228 412.704 93.5162 408.572 87.5703C418.512 94.0289 421.079 86.8818 420.304 86.9534C408.637 87.2321 399.238 74.7351 398.566 74.4634C396.798 73.7557 395.77 73.484 395.142 74.092C393.091 71.178 390.511 68.2523 387.359 65.2832C390.453 63.2047 393.091 60.395 395.038 56.8066C408.995 62.511 407.969 62.8889 427.66 67.8593C440.252 71.0374 452.149 74.0438 457.373 79.8877C456.278 83.9913 458.062 88.5992 461.932 88.1483C462.067 88.5141 462.101 88.967 462.121 89.3302C456.346 89.0981 457.166 95.3334 459.788 97.1873C461.119 97.9951 460.536 102.931 460.751 106.388L461.056 106.18C466.523 102.438 464.852 99.226 464.621 96.0008C464.7 94.3638 466.444 94.1914 466.742 96.2613C467.515 107.826 473.357 102.467 478.523 105.325L478.931 105.551C478.79 104.853 478.783 104.776 478.57 104.046C477.263 99.5583 479.617 97.0324 476.45 93.1374C475.256 91.6683 473.662 91.1202 471.826 91.7012C470.608 91.6879 469.531 89.5378 471.25 88.8476C474.972 89.0214 478.226 90.0414 480.398 84.6435C478.555 84.7183 477.562 85.103 476.093 85.103C471.584 85.103 471.368 81.2517 468.558 81.2517C466.451 81.2517 464.702 83.7856 465.523 86.1888C465.168 86.2156 464.733 86.1867 464.395 86.1125C464.713 81.1318 461.597 78.9194 457.702 79.5669C453.534 74.8809 445.244 72.0091 435.731 69.4419C444.416 70.1069 459.937 69.7913 463.955 61.1209C467.361 61.5046 470.745 61.8607 474.093 62.1892L480.243 67.0112C478.703 71.9921 494.654 78.8905 496.938 91.7523C496.977 91.9734 497.24 92.0198 497.34 91.827C498.478 89.6033 501.201 86.9093 494.165 78.7667C495.841 79.6299 497.439 80.9667 498.993 82.2659C503.768 86.2592 503.796 86.1496 509.383 86.1794C511.587 86.1906 511.472 86.2676 511.558 86.0931C511.76 85.6842 506.988 79.6087 505.608 78.8331C502.779 77.2428 499.382 76.2296 496.995 74.5086C508.095 76.8713 508.676 69.236 507.882 69.5716C500.073 72.8635 491.434 69.8755 483.772 65.8778C483.564 65.7705 481.087 65.754 480.459 66.5848L474.959 62.2731C499.74 64.6726 522.868 65.2837 522.866 64.6057C522.866 64.4734 522.771 64.3621 522.648 64.3621L522.654 64.3638ZM461.96 48.0382C464.89 51.139 465.536 56.3613 463.706 60.6023C455.283 59.6502 446.451 58.5014 438.029 57.2064C442.914 53.3521 454.313 39.9436 461.96 48.0382H461.96ZM436.859 57.5166C433.567 59.9812 430.032 61.8537 427.25 61.0658C424.538 60.2982 422.502 57.7923 421.511 54.8191C425.867 55.6977 431.068 56.6128 436.859 57.5166ZM386.042 64.0645C378.31 57.0982 367.422 49.868 352.829 41.9603C364.08 45.1032 377.364 49.6434 393.341 56.1139C391.768 59.3717 389.274 62.0606 386.041 64.0645H386.042ZM385.628 64.3157C376.035 69.9803 359.212 69.8506 345.284 60.4939C345.143 60.3101 345 60.1288 344.856 59.9471C344.114 57.9831 342.13 55.6816 339.291 53.385C342.657 50.5226 345.551 44.7596 346.653 40.3217C355.743 42.6004 376.56 56.1834 385.627 64.3164L385.628 64.3157ZM279.503 49.124C277.254 47.3869 274.86 45.9307 272.332 44.7542C272.372 43.4237 272.537 42.0989 272.848 40.8062C275.216 42.0641 277.438 43.4571 279.503 44.984C281.569 43.4573 283.79 42.0643 286.158 40.8066C286.469 42.0993 286.633 43.424 286.674 44.7544C284.146 45.9307 281.752 47.3867 279.503 49.124ZM214.152 59.9432C214.007 60.1267 213.862 60.3101 213.72 60.496C199.797 69.848 182.977 69.9833 173.381 64.315C181.729 56.8274 202.795 42.7174 212.353 40.3226C213.453 44.7556 216.347 50.523 219.715 53.3871C216.88 55.6816 214.896 57.9813 214.153 59.9441L214.152 59.9432ZM172.964 64.064C169.732 62.0599 167.238 59.3708 165.666 56.1132C181.642 49.6427 194.925 45.1027 206.177 41.9598C191.585 49.8676 180.698 57.0975 172.964 64.064ZM279.503 51.3345C281.797 49.7076 284.18 48.4415 286.591 47.4695C286.408 49.5483 285.96 51.5957 285.338 53.5105C283.285 54.166 281.331 55.0418 279.501 56.1285C277.672 55.0418 275.718 54.166 273.665 53.5105C273.044 51.5955 272.595 49.5476 272.412 47.4683C274.824 48.4408 277.208 49.7071 279.503 51.3345ZM395.105 46.3263C395.35 49.5804 394.958 52.5292 393.541 55.6753C375.734 48.455 360.278 43.2178 346.766 39.8272C347.241 37.7282 347.39 35.829 347.29 34.0465C361.857 36.1532 377.832 40.2538 395.105 46.3263H395.105ZM324.405 35.6688C324.085 34.6798 323.852 33.5767 323.797 32.3925C328.392 32.3316 333.172 32.5248 338.133 32.97C338.572 34.7201 338.204 36.3058 337.174 37.6638C332.621 36.7611 328.418 36.1129 324.405 35.6688ZM336.804 38.1098C333.952 41.2582 326.999 42.7571 324.587 36.1971C328.324 36.6195 332.373 37.2381 336.804 38.1098ZM338.593 33.012C341.293 33.2621 344.046 33.5863 346.852 33.9852C346.978 35.8213 346.818 37.744 346.367 39.7271C343.376 38.9824 340.48 38.3288 337.674 37.7646C338.629 36.3723 338.977 34.7124 338.593 33.012ZM341.699 23.2985C344.728 26.0998 346.432 29.5881 346.814 33.489C343.978 33.0874 341.196 32.7618 338.467 32.5117C335.921 23.259 327.864 30.0007 328.956 30.5519C329.066 30.6072 329.194 30.5528 329.244 30.4299C329.451 29.9123 331.741 27.9703 334.051 28.1664C335.892 28.3234 337.218 29.7701 337.999 32.4688C333.082 32.0328 328.342 31.8444 323.784 31.905C323.745 22.1606 335.086 17.1809 341.699 23.2985ZM323.36 32.4C323.412 33.5557 323.627 34.6373 323.927 35.6158C314.376 34.594 306.874 34.8536 300.172 35.3996C307.768 33.3806 315.554 32.5311 323.361 32.4H323.36ZM299.312 35.6347L299.334 35.9587C306.272 35.3637 314.058 35.0453 324.1 36.143C326.669 43.5105 334.451 41.746 337.337 38.2154C340.149 38.7776 343.113 39.4412 346.249 40.2209C345.168 44.5492 342.269 50.2916 338.92 53.0895C324.677 41.8579 303.004 37.3963 287.097 44.5583C287.047 43.2241 286.874 41.8957 286.556 40.5988C290.431 38.5795 294.694 36.9204 299.312 35.6347H299.312ZM279.503 31.2207C282.619 33.3437 284.966 36.3769 286.036 40.3327C283.717 41.5607 281.536 42.9169 279.503 44.4008C277.47 42.9169 275.288 41.5607 272.969 40.3327C274.038 36.3832 276.384 33.3451 279.503 31.2207ZM271.908 44.5578C255.59 37.2104 233.784 42.288 220.086 53.0904C216.731 50.2888 213.833 44.5373 212.755 40.2207C215.891 39.4409 218.855 38.7773 221.667 38.2152C224.518 41.7023 232.308 43.5868 234.904 36.1428C244.947 35.0451 252.732 35.3635 259.67 35.9585L259.692 35.6343C264.311 36.9199 268.574 38.5788 272.448 40.5979C272.13 41.8952 271.957 43.2234 271.907 44.5578H271.908ZM212.152 33.9854C214.958 33.5865 217.711 33.2623 220.411 33.0123C220.027 34.7127 220.375 36.3725 221.33 37.7648C218.525 38.329 215.629 38.9826 212.637 39.7274C212.186 37.744 212.026 35.8213 212.152 33.9854ZM221.83 37.6638C220.786 36.2878 220.436 34.6959 220.87 32.97C225.831 32.525 230.612 32.3316 235.207 32.3925C235.151 33.5767 234.918 34.68 234.599 35.6688C230.34 36.1402 226.118 36.8138 221.83 37.6638ZM234.417 36.1971C232.039 42.6657 225.114 41.3266 222.2 38.1098C226.631 37.2381 230.679 36.6195 234.417 36.1971ZM258.833 35.3998C252.13 34.8536 244.628 34.594 235.076 35.6158C235.376 34.6373 235.59 33.5557 235.643 32.4C243.449 32.5308 251.236 33.3803 258.833 35.3998H258.833ZM235.22 31.9048C230.662 31.8444 225.922 32.0326 221.005 32.4686C223.225 24.7964 229.391 29.5102 229.76 30.4299C229.878 30.7231 230.275 30.5242 230.156 30.2293C229.626 28.908 222.848 24.1099 220.536 32.5115C217.808 32.7615 215.026 33.0871 212.189 33.489C213.883 16.1915 235.278 17.3542 235.22 31.9048H235.22ZM211.715 34.0465C211.614 35.8302 211.764 37.7291 212.239 39.827C198.727 43.2173 183.272 48.4543 165.466 55.6742C164.053 52.5388 163.656 49.5933 163.903 46.3254C181.176 40.2538 197.149 36.1535 211.716 34.0465H211.715ZM137.495 54.8193C136.501 57.8007 134.461 60.3 131.756 61.0658C128.974 61.8537 125.439 59.9812 122.147 57.5169C127.938 56.6128 133.138 55.698 137.495 54.8193ZM115.54 52.449C117.061 53.8581 118.95 55.6072 120.978 57.2066C112.558 58.5012 103.726 59.65 95.3007 60.6026C91.4193 51.606 98.89 37.0161 115.54 52.449H115.54ZM126.064 68.7032C125.744 68.6666 100.83 72.0672 95.5144 61.0681C103.944 60.1127 112.896 58.9495 121.506 57.6167C124.349 59.7948 128.528 62.4821 131.864 61.5391C134.803 60.7071 136.992 57.9517 137.991 54.7188C149.406 52.3893 147.396 52.2782 160.947 47.3806C161.377 50.6079 162.324 53.6484 163.738 56.3779C146.454 63.4501 152.827 61.7586 126.064 68.7032H126.064ZM271.841 52.9939C271.788 52.6965 266.777 52.1402 266.038 52.1402C257.409 52.1402 250.312 55.0882 244.903 57.1329C243.01 57.856 230.672 59.6705 222.237 54.6103C236.36 46.3515 256.445 41.2773 271.968 47.2936C272.133 49.374 272.559 51.4257 273.159 53.3519C272.724 53.222 272.284 53.104 271.841 52.9939H271.841ZM279.504 63.9672C277.127 60.5116 275.461 58.6946 273.858 54.079C275.845 54.7386 277.735 55.6105 279.504 56.6825C281.274 55.6105 283.164 54.7386 285.15 54.079C283.555 58.6752 281.917 60.4596 279.504 63.9672ZM314.103 57.1329C313.895 57.0541 298.64 50.9314 292.929 52.149C292.43 52.1737 287.232 52.6281 287.167 52.9936C286.723 53.1037 286.282 53.222 285.847 53.3521C286.447 51.4262 286.872 49.3749 287.038 47.2948C302.75 41.2034 322.927 46.5136 336.771 54.6094C328.677 59.4662 316.476 58.0398 314.103 57.1329H314.103ZM432.942 68.7032C406.693 61.8918 412.979 63.6251 395.271 56.3788C396.684 53.6493 397.632 50.6089 398.062 47.3813C411.624 52.2827 409.61 52.3911 421.016 54.7188C422.409 59.2233 425.664 61.7343 428.606 61.7343C431.362 61.7341 434.554 59.8744 437.502 57.6169C446.114 58.95 455.064 60.113 463.493 61.0684C458.174 72.0721 433.423 68.6477 432.941 68.7032H432.942Z" fill="white"/>
<path d="M353.915 82.9143C343.723 85.8953 344.43 92.1857 344.793 92.431C346.772 93.7669 352.728 92.351 354.184 83.1931C354.212 83.0209 354.071 82.8693 353.915 82.9143Z" fill="white"/>
<path d="M204.813 83.1919C206.549 94.1093 214.261 93.4009 214.308 92.2335C214.641 85.0927 204.684 82.3562 204.813 83.1919Z" fill="white"/>
<path d="M355.059 89.5667C349.636 100.704 351.175 108.219 355.325 107.762C361.439 107.318 358.654 96.4827 355.059 89.5667Z" fill="white"/>
<path d="M203.939 89.5667C198.994 99.0767 198.576 107.778 204.022 107.781C208.127 107.781 208.943 99.8291 203.939 89.5667Z" fill="white"/>
<path d="M356.12 83.3249C357.843 94.1723 365.557 93.605 365.615 92.3676C365.951 85.1909 355.993 82.533 356.12 83.3249Z" fill="white"/>
<path d="M202.62 83.0473C196.296 84.8982 193.192 88.0347 193.395 92.3692C193.413 92.7849 194.577 92.9969 195.137 92.9967C201.154 92.9974 203.716 82.731 202.62 83.0473Z" fill="white"/>
<path d="M523.673 65.8449C523.465 66.0591 524.773 76.92 531.177 77.1047C531.541 77.1047 532.367 75.1116 531.501 72.4352C529.854 67.348 523.926 65.5828 523.673 65.8449Z" fill="white"/>
<path d="M27.4914 72.4343C26.6289 75.099 27.4504 77.105 27.8101 77.104C34.0701 77.0875 35.5278 66.0602 35.3191 65.844C35.1081 65.6252 29.1746 67.2381 27.4914 72.4343Z" fill="white"/>
<path d="M529.624 65.3084C538.792 72.0098 545.911 71.2837 545.826 66.4292C545.909 59.3386 535.719 62.0112 529.624 65.3084Z" fill="white"/>
<path d="M29.3827 65.3084C20.3217 60.4031 13.1144 60.9468 13.1804 66.4288C13.0976 71.2513 20.1634 72.0417 29.3827 65.3084Z" fill="white"/>
<path d="M524.152 63.6477C532.35 62.7427 534.15 56.2261 533.1 53.8742C532.966 53.5723 527.44 51.9459 523.925 63.3253C523.872 63.4975 524.002 63.6694 524.152 63.6477Z" fill="white"/>
<path d="M35.0773 63.3258C31.6376 52.1903 26.0944 53.4457 25.9022 53.8751C25.4902 54.7976 25.4837 56.5582 26.3963 58.4121C28.6648 63.0191 35.3921 64.3519 35.0773 63.3258Z" fill="white"/>
</svg>
