<svg width="201" height="189" viewBox="0 0 201 189" fill="none" xmlns="http://www.w3.org/2000/svg">
<path d="M39.9218 51.975C39.9218 54.6849 39.4349 57.8813 40.0609 60.5217C40.3391 61.8419 40.7564 62.8147 40.826 64.2044C40.9651 65.6636 41.3824 67.1228 41.9388 68.443C44.0948 73.3765 47.8505 77.1287 51.6758 80.7419C55.5706 84.4246 60.2305 87.9684 65.2381 89.9835C66.49 90.4698 67.6723 90.8173 68.8547 91.5816C69.7588 92.1375 70.8716 92.207 71.7062 92.9018C72.819 93.8746 72.8886 98.3217 70.7325 97.8353C69.8979 97.6268 69.0633 97.0015 68.8547 96.0982C68.646 95.1948 69.272 94.2221 68.9242 93.3882C68.5765 92.4849 66.6986 92.2765 65.9336 91.929C64.473 91.3731 63.082 90.6783 61.6215 89.9835C59.0481 88.7327 56.3356 87.8294 53.6927 86.8566C50.7716 85.8143 47.9896 84.7026 44.9294 84.3551C42.4952 84.0772 39.5045 83.7993 37.0702 84.2857C35.1228 84.6331 32.2713 86.4397 31.5062 88.3853C30.6021 90.8173 31.6453 94.0831 31.854 96.5151C31.9235 97.6268 31.854 98.8081 32.2713 99.9198C32.8277 101.171 34.01 101.796 34.9837 102.699C37.0007 104.575 38.809 106.938 40.2 109.3C41.7301 111.802 41.6606 114.79 43.5384 117.083C45.2772 119.098 47.6419 120.418 50.0066 121.53C51.7453 122.364 51.5367 121.46 51.6758 119.793C51.8149 118.194 51.8844 116.249 52.6495 114.79C55.1533 109.995 61.4128 107.911 66.4204 107.216C69.8979 106.729 73.445 106.938 76.9225 107.424C78.5221 107.633 80.0522 107.702 81.7215 107.494C82.2083 107.424 82.7647 107.285 83.2516 107.355C83.7384 107.424 84.1557 107.911 84.6426 108.05C84.7817 106.035 83.4602 106.521 81.9997 105.687C81.3737 105.34 80.8173 105.131 80.6782 104.436C80.6087 104.019 80.8868 103.116 81.2346 103.881C82.0692 105.548 84.0862 102.352 84.8512 103.533C85.6858 104.853 87.981 104.228 89.2329 104.853C88.0505 105.687 87.7723 105.826 87.8419 107.285C88.6069 107.216 89.1633 106.312 89.8588 105.896C90.2761 107.563 88.2592 108.953 87.1464 110.134C85.8945 111.454 84.2948 112.497 82.5561 113.053C80.8173 113.608 78.9394 113.817 77.1311 113.539C76.227 113.4 75.3228 113.122 74.4187 112.775C73.7232 112.427 72.4713 112.636 71.9844 111.871C71.0803 110.343 73.5841 108.675 74.836 108.536C77.4789 108.258 75.3924 110.69 75.1837 111.732C74.9751 112.775 79.4263 112.566 80.0522 112.497C82.6256 112.219 84.3644 111.246 86.0336 109.37C84.8512 109.37 83.9471 109.37 82.7647 109.648C81.7215 109.856 80.8173 109.578 80.1218 108.744C79.7045 108.258 77.2007 108.467 76.5052 108.397C74.7664 108.258 72.9581 108.119 71.1498 108.05C65.7945 107.911 59.535 108.883 55.5706 112.844C54.8055 113.608 53.6927 114.442 53.345 115.485C52.9277 116.735 52.8581 118.264 52.7886 119.584C52.5799 122.781 52.9972 125.838 53.8318 128.965C54.5273 131.675 55.2924 134.524 56.5443 137.025C57.4484 138.832 59.1176 142.514 61.3433 142.862C62.6647 143.07 63.0125 143.14 63.5689 144.46C63.9862 145.502 64.7512 146.405 65.5163 147.17C67.4637 148.976 69.8284 150.575 71.9149 152.173C74.1405 153.84 76.4356 155.23 78.7308 156.759C80.9564 158.218 82.6952 160.372 84.9903 161.623C87.4246 163.012 87.7028 160.233 87.9114 158.426C88.2592 155.578 88.5374 152.798 88.8851 149.949C89.1633 147.239 90.2066 144.668 90.4152 141.958C90.6239 138.901 91.8062 136.122 92.5713 133.134C92.7799 132.161 93.6841 130.702 93.4059 129.729C93.1277 128.687 91.8758 127.992 91.2498 127.158C89.6502 124.796 89.5111 121.738 89.0938 119.028C89.0242 118.542 89.6502 117.152 89.9284 118.194C90.2761 119.584 90.4848 120.974 90.8325 122.364C91.528 125.351 93.0581 127.019 95.2837 129.034C97.092 130.702 98.3439 132.717 100.291 134.315C102.587 136.122 104.743 138.067 106.968 139.943C109.055 141.68 111.141 143.487 113.436 144.877C116.079 146.406 118.722 146.406 121.643 146.544C124.495 146.683 126.651 146.058 129.294 145.016C132.145 143.835 134.162 144.946 136.457 146.614C138.544 148.143 140.909 148.699 143.134 147.239C145.777 145.433 148.49 143.696 151.202 141.958C153.289 140.569 156.279 139.526 156.627 136.817C156.766 135.566 157.114 134.385 157.74 133.273C158.296 132.3 159.061 131.188 158.505 130.007C157.462 127.853 153.915 127.228 151.828 127.158C148.698 126.95 145.638 127.158 142.578 127.714C136.736 128.687 131.102 129.59 125.121 129.799C124.147 129.799 123.869 128.965 123.034 128.895C122.2 128.826 121.504 129.937 120.739 129.521C119.974 129.104 119.904 128.061 120.113 127.297C120.391 126.116 121.852 125.838 122.895 125.629C123.869 125.49 124.634 125.768 124.773 126.88C124.912 128.2 124.773 128.2 126.303 128.131C129.572 127.922 132.771 127.853 136.04 127.367C138.892 126.88 141.604 125.977 144.456 125.699C147.585 125.351 150.715 125.56 153.845 125.699C155.723 125.838 158.922 127.297 160.035 128.895C161.426 130.91 159.131 133.759 158.644 135.705C158.366 136.817 158.505 138.067 158.088 139.11C157.67 140.152 156.488 140.638 155.584 141.194C153.08 142.792 150.715 144.668 148.142 146.267C143.412 149.115 139.031 152.312 133.328 152.242C130.615 152.173 127.833 151.617 125.26 150.644C124.147 150.227 123.73 149.602 122.895 148.768C122.061 147.865 120.391 148.073 119.279 148.004C118.444 147.934 116.775 148.143 116.079 147.726C115.036 147.1 113.923 146.753 112.741 146.406C111.558 146.058 110.446 145.78 109.333 145.363C108.429 145.016 107.664 144.321 106.69 144.112C106.899 145.919 108.846 148.282 110.098 149.532C111.976 151.478 115.106 153.285 117.609 154.327C118.653 154.744 119.835 154.605 120.878 155.022C121.921 155.508 122.826 156.342 123.869 156.898C126.512 158.426 129.016 158.496 132.006 158.357C134.788 158.218 137.848 158.357 140.561 157.732C143.691 157.106 146.334 156.064 149.602 156.62C152.384 157.037 154.819 156.62 157.392 155.786C158.713 155.369 160.174 155.091 161.565 155.091C162.261 155.091 163.026 155.161 163.721 155.3C164.347 155.439 165.251 155.925 165.877 155.786C166.642 155.578 166.712 153.493 166.851 152.937C167.199 151.547 167.546 150.227 167.964 148.837C168.729 146.197 170.746 143.696 172.415 141.542C174.084 139.457 175.892 137.442 177.422 135.218C178.118 134.176 178.953 132.995 179.439 131.814C179.787 130.841 177.701 130.841 177.144 130.771C176.031 130.493 174.571 130.354 173.528 129.729C172.554 129.173 171.858 127.992 171.233 127.089C169.702 124.935 168.52 122.086 169.633 119.445C170.607 117.013 171.233 115.901 168.798 114.164C166.225 112.358 163.791 111.663 160.661 111.176C154.471 110.204 148.211 109.995 141.952 109.509C139.379 109.3 136.457 109.231 133.954 108.467C132.98 108.189 134.997 107.772 135.206 107.772L140.213 108.189C146.125 108.675 152.245 108.536 158.088 109.509C163.165 110.343 170.189 110.621 172.276 116.318C172.693 117.43 173.528 118.264 174.015 119.306C174.571 120.488 174.71 121.738 175.127 122.989C175.475 124.17 175.823 125.56 176.449 126.602C176.797 127.297 178.396 128.826 179.231 128.756C179.857 128.687 180.552 126.255 180.761 125.768L182.221 122.016C183.404 119.167 184.934 117.222 184.795 114.025C184.656 111.246 185.49 108.675 185.629 105.965C185.699 104.575 185.003 103.811 184.586 102.56C184.099 101.24 184.517 99.5029 184.447 98.1132C184.308 92.2765 183.543 85.6754 181.596 80.1165C180.622 77.4066 179.439 74.0713 177.562 71.9173C175.684 69.8327 172.763 69.2073 170.12 68.6515C163.095 67.2618 155.931 68.5125 149.046 69.9022C142.508 71.1529 137.014 75.3221 131.519 78.8658C128.598 80.7419 125.816 82.3401 122.686 83.7298C121.504 84.2857 120.252 84.8415 119.209 85.6754C118.096 86.5092 117.54 87.8294 116.427 88.6632C116.01 86.3702 118.583 84.772 120.322 83.9382C122.826 82.618 125.469 81.7147 127.903 80.186C132.771 77.0592 137.501 73.3765 142.856 71.0834C144.108 70.5276 145.36 70.1107 146.681 69.7632C147.516 69.4853 149.116 69.3463 149.742 68.6515C150.089 68.304 149.881 67.7482 150.02 67.3312C150.228 66.7059 150.576 66.2195 150.785 65.5941C151.202 64.1349 150.993 62.7452 150.993 61.2165C150.993 59.8963 151.619 58.7846 151.48 57.4643C151.341 56.1441 150.993 54.8934 150.646 53.5732C149.881 50.7243 149.742 47.5279 147.933 45.096C146.334 43.0114 145.082 41.1353 142.786 39.7456C141.952 39.2592 140.7 38.7728 140.561 37.661C140.352 36.6188 140.978 35.9239 141.396 37.1746C141.674 38.0779 142.856 38.2864 143.621 38.7033C144.664 39.1897 145.638 39.954 146.403 40.8573C148.142 42.9419 149.742 45.096 150.646 47.6669C151.55 50.3074 152.106 53.0868 152.663 55.7967C152.941 57.1864 153.08 58.6456 152.732 60.1048C152.384 61.4945 152.593 62.6757 152.524 64.0654C152.454 65.3162 152.106 66.5669 151.48 67.7482C150.785 69.0684 153.08 68.3735 153.567 68.304C156.766 67.8176 160.035 67.1923 163.234 67.0533C168.172 66.7754 175.406 67.4007 178.953 71.3614C182.639 75.3916 183.473 81.7842 184.725 86.8566C185.421 89.775 185.908 92.6934 186.047 95.6813C186.116 97.2099 186.047 98.7386 186.116 100.198C186.186 101.796 186.673 102.699 187.09 104.089C187.925 106.59 186.742 109.856 186.534 112.358C186.464 113.747 186.603 115.207 186.325 116.596C186.047 118.125 185.073 119.584 184.447 120.974C183.265 123.406 181.317 126.116 180.761 128.756C180.483 129.937 180.761 131.119 180.413 132.369C179.996 133.759 179.231 134.94 178.396 136.122C174.849 140.916 171.163 145.155 168.59 150.505C167.685 152.451 169.076 155.161 167.964 156.967C167.546 157.662 166.642 157.315 166.016 157.245C165.251 157.176 165.46 158.287 164.695 158.565C163.443 159.052 162.052 159.26 160.73 159.121C159.409 158.982 158.296 158.357 156.975 158.079C155.792 157.871 154.471 158.357 153.358 158.357C151.689 158.426 150.02 158.149 148.351 158.149C145.151 158.218 142.161 159.121 139.031 159.538C136.04 159.955 132.771 160.233 129.711 160.164C127.068 160.094 124.564 159.191 122.339 157.732C119.904 156.203 117.122 155.717 114.688 154.257C112.532 153.007 110.446 151.339 108.846 149.393C108.081 148.56 107.455 147.587 106.968 146.614C106.412 145.572 106.203 144.043 105.438 143.14C104.743 142.375 103.56 141.889 102.726 141.125C101.752 140.221 100.987 139.11 100.291 137.928C98.9699 135.496 97.718 133.134 95.4228 131.466C94.6578 132.856 94.3796 134.385 93.9623 135.844C93.6145 137.164 92.9886 138.623 92.8495 140.013C92.4322 143.557 91.528 147.031 90.9021 150.575C90.2761 153.84 90.3457 157.245 89.6502 160.511C89.372 161.623 89.0938 162.943 88.1201 163.638C87.0768 164.402 86.1031 163.846 84.9903 163.846C85.7554 166 87.2159 168.502 89.5806 169.127C92.3626 169.822 93.3363 170.934 95.0751 173.088C96.0488 174.269 99.4567 172.532 100.639 172.324C102.03 172.046 103.491 171.837 104.882 171.768C105.925 171.698 107.177 171.907 108.151 171.559C109.333 171.142 108.429 168.502 108.359 167.668C108.29 165.861 109.055 164.819 110.585 163.916C112.671 162.804 115.106 162.943 117.122 161.901C118.027 161.414 118.722 160.65 119.139 159.677C119.418 158.982 120.322 156.898 121.156 158.218C122.061 159.538 120.461 163.082 119.696 164.333C119.139 165.236 118.027 165.792 117.54 166.765C116.844 168.085 116.566 168.78 115.175 169.614C110.793 171.976 106.968 177.396 101.404 176.354C99.0394 175.937 96.5356 176.493 94.2405 175.798C92.0149 175.172 89.4415 173.713 87.4941 172.393C85.4076 171.003 84.3644 168.849 82.7647 166.973C80.9564 164.958 78.7308 163.36 76.8529 161.345C72.9581 157.176 68.5069 153.979 63.9862 150.575C63.082 149.88 62.6647 148.768 62.3865 147.726C62.2474 147.17 62.1779 146.614 62.0388 146.058C61.9692 145.78 62.3865 145.433 62.317 145.155C62.2474 144.946 60.2304 144.529 59.8827 144.321C58.7699 143.626 58.0744 142.584 57.3789 141.542C56.6138 140.43 55.9183 139.249 55.3619 138.067C55.0837 137.442 54.736 135.149 54.11 134.871C53.5536 134.593 51.7453 135.774 51.1889 136.052C49.7979 136.608 48.4069 137.303 46.8768 136.817C44.373 136.052 42.217 135.288 39.9218 134.037C37.5571 132.717 34.7055 132.578 32.4799 130.841C28.0287 127.297 25.4554 122.433 22.1865 117.917C20.6564 115.763 19.0568 113.608 17.8744 111.246C16.5529 108.675 15.6488 105.757 14.8142 103.047C13.9796 100.267 13.9796 97.5574 14.1882 94.639C14.2578 93.3188 14.7446 92.068 14.7446 90.8173C14.8142 89.3581 13.9796 88.4548 13.8405 87.0651C13.5623 84.5636 13.7709 81.7842 14.2578 79.2827C14.4664 78.171 14.3273 76.9202 14.9533 75.8779C15.5792 74.7662 15.9965 73.6544 16.6225 72.5426C17.8048 70.4581 19.6827 69.7632 21.5606 68.582C23.4384 67.4007 24.273 65.1772 26.5682 64.4823C27.6114 64.2044 28.5851 64.4129 29.3502 63.5096C30.0457 62.6757 30.9498 62.0504 31.9235 61.6335C34.01 60.7996 36.4443 60.8691 38.0439 62.6063C35.6097 62.3283 33.4536 61.7029 31.2976 63.2316C30.463 63.7875 29.9761 65.0382 28.9329 65.3162C27.681 65.5941 26.6377 65.3857 25.5249 66.15C24.6208 66.7754 24.1339 67.6787 23.4384 68.5125C22.6734 69.4158 21.6301 69.9022 20.5869 70.3886C19.6827 70.8055 18.8481 71.4309 18.1526 72.1952C17.318 73.168 17.3875 74.8357 16.5529 75.6C15.7183 76.4338 15.5792 77.6151 15.5097 78.7268C15.4401 79.9776 14.8142 81.0893 14.8837 82.3401C14.9533 83.7298 14.9533 84.9805 14.8837 86.3702C14.8142 87.7599 15.9965 88.6632 16.0661 89.9835C16.1356 91.2342 15.5097 92.4154 15.301 93.6662C15.0924 95.0559 15.0228 96.5151 15.0924 97.9048C15.1619 100.754 16.4138 103.394 17.2484 106.104C18.9872 111.524 22.4647 115.693 25.5945 120.418C28.446 124.726 31.9235 129.451 37.0007 131.397C37.9048 131.744 39.5741 131.814 40.2696 132.439C41.1737 133.273 42.3561 133.829 43.5384 134.246C44.7208 134.662 45.9727 135.218 47.2246 135.427C48.9633 135.705 50.1457 134.94 51.6758 134.315C52.5104 133.968 53.9014 133.898 53.5536 132.647C53.2059 131.466 52.9277 130.215 52.6495 128.965C52.3713 127.783 52.3017 126.394 51.954 125.282C51.6062 124.17 49.7979 123.962 48.8938 123.545C46.3204 122.503 43.8166 120.626 42.1474 118.403C40.4087 116.11 40.4782 112.983 38.9481 110.482C37.3484 107.841 34.9837 105.201 32.6886 103.186C30.2543 101.032 31.0889 98.4607 30.7412 95.6118C30.3934 92.6934 29.072 89.775 31.228 87.2735C32.8277 85.3974 34.8446 83.8687 37.418 83.5908C40.3391 83.2434 43.8862 83.4518 46.8073 83.9382C48.3374 84.2162 49.8675 84.6331 51.3976 85.189C52.5799 85.6059 54.1796 86.6482 55.4315 86.5787C54.8055 85.3974 53.4841 84.4246 52.5799 83.4518C51.5367 82.4096 50.4934 81.2978 49.3806 80.2555C48.3374 79.2132 47.2941 78.1015 46.2509 77.0592C45.3467 76.0864 44.9294 74.4882 44.0253 73.5849C42.2865 71.9868 41.7997 69.5548 40.6869 67.5397C40.0609 66.4974 40.2 64.6908 40.0609 63.5096C39.8522 61.7724 39.7132 59.9658 39.5741 58.2287C39.1567 52.114 39.0872 45.6518 40.4087 39.6761C40.6869 38.2864 41.1042 36.8967 41.4519 35.507C41.7301 34.3952 41.8692 32.8665 42.5647 31.8938C44.1644 29.7397 46.5291 32.3802 48.1287 30.7125C49.7979 28.9754 50.4934 26.4044 52.0931 24.5978C53.7623 22.7217 56.4747 22.5827 58.3526 21.1235C60.4391 19.5254 62.6647 18.0662 64.8903 16.6765C67.5332 15.0088 70.2457 14.5224 73.2363 14.1055C76.0183 13.7581 79.009 13.6191 81.7215 14.2445C82.7647 14.5224 83.808 15.0088 84.573 15.7732C85.6858 16.9544 86.8682 17.1629 88.3287 17.7188C93.2668 19.5949 97.5093 23.0691 99.3872 28.0721C99.6654 28.8364 98.8308 29.5313 98.2744 28.8364C97.5789 27.9331 97.2311 26.9603 96.6747 25.9875C95.7706 24.4588 94.3796 23.2081 93.0581 22.0963C90.2761 19.7338 86.6595 18.9695 83.7384 16.9544C81.9997 15.7037 80.6087 15.3563 78.4526 15.1478C76.3661 14.9393 74.21 15.0783 72.1235 15.2868C67.7419 15.7037 64.3339 17.9272 60.7869 20.4287C59.0481 21.6794 57.6571 22.5827 55.6401 23.3471C54.11 23.903 52.9277 25.0147 52.0235 26.2654C50.9107 27.7246 49.937 29.3923 48.8242 30.8515C47.5028 32.6581 46.6682 32.0327 44.7208 31.9632C43.4689 31.8938 43.1211 33.075 42.9125 34.1173C42.4256 36.1324 41.7997 38.078 41.3128 40.093C40.6869 40.5099 39.7827 51.975 39.9218 51.975ZM109.472 166.973C109.611 168.293 109.542 169.892 109.959 171.142C111.35 170.586 112.602 169.405 113.854 168.571C115.175 167.668 115.731 166.904 116.636 165.653C117.401 164.611 118.513 164.055 119.07 162.804C119.487 161.901 120.252 160.303 120.044 159.26C118.513 161.067 117.679 162.526 115.106 162.874C113.089 163.221 109.124 164.194 109.472 166.973ZM134.232 150.992C135.623 150.714 138.474 150.644 139.448 149.741C138.544 149.046 137.222 148.837 136.318 148.212C135.136 147.378 134.162 146.336 132.702 146.058C131.172 145.78 129.92 146.336 128.598 147.031C127.138 147.795 125.469 147.726 123.938 148.282C126.025 150.644 131.241 150.783 134.232 150.992ZM170.537 121.669C171.024 123.614 172.206 126.324 173.736 127.714C174.849 128.756 177.492 129.868 178.953 129.312C177.353 127.853 175.684 127.367 174.849 125.074C174.362 123.753 173.945 122.433 173.458 121.113C173.11 120.21 172.902 118.889 171.928 118.472C171.302 119.584 170.607 120.418 170.537 121.669ZM85.6858 167.39C84.9208 165.861 83.7384 164.611 82.6952 163.221C82.3474 162.804 81.9301 162.457 81.5824 161.97C81.3042 161.484 81.5128 160.858 81.2346 160.511C80.2609 159.26 78.4526 158.149 77.1311 157.245C75.4619 156.064 73.5145 154.396 71.5671 153.771C72.3322 155.022 73.8623 155.856 74.836 156.828C76.227 158.218 77.5484 159.677 79.009 161.067C80.1913 162.248 81.5128 163.29 82.6952 164.402C83.5993 165.305 84.4339 167.112 85.4772 167.737C85.5467 167.599 85.6163 167.46 85.6858 167.39ZM105.994 172.462C105.925 171.976 97.9266 173.435 97.092 174.2C97.9266 174.617 98.9003 174.269 99.8045 174.339C100.848 174.478 101.752 174.894 102.795 174.894C104.951 174.894 106.551 173.852 108.22 172.601C107.455 172.462 106.76 172.462 105.994 172.462ZM87.2159 169.475C86.7986 169.683 89.5111 171.212 89.8588 171.42C90.9021 172.046 92.3626 173.366 93.6145 173.296C92.7104 170.378 89.8588 170.03 87.2159 169.475ZM162.052 155.925C161.078 156.064 159.409 155.925 158.644 156.62C159.965 157.662 163.026 157.593 164.347 156.62C163.86 156.064 162.817 156.064 162.052 155.925ZM63.082 146.683C62.9429 148.143 64.5426 148.976 65.5858 149.671C66.6986 150.436 68.0201 151.686 69.3415 152.173C68.9938 151.131 67.1855 150.019 66.3509 149.324C65.3076 148.49 64.1948 147.239 63.082 146.683ZM101.821 137.511C101.056 137.859 102.517 138.762 102.795 138.971C103.491 139.526 104.534 140.916 105.438 140.847C104.603 139.665 103.004 138.345 101.821 137.511Z" fill="#FACFE2"/>
<path d="M101.752 80.8114C102.1 80.1165 102.865 79.0743 102.865 78.3099C102.865 76.5033 101.474 79.2827 101.474 79.3522C100.5 81.0894 98.6221 80.3945 98.7612 78.7268C99.0394 78.2404 99.3176 77.754 99.7349 77.3371C100.5 76.6423 100.778 77.1982 101.613 76.8507C102.169 76.6423 102.447 75.9474 103.004 75.739C103.769 75.461 104.325 75.5305 104.951 74.9746C103.838 74.0713 102.865 73.0985 101.891 72.0563C101.404 71.5004 102.03 70.4581 102.795 70.736C103.699 71.1529 104.743 70.8055 105.716 71.0835C107.038 71.5004 106.759 71.7783 107.664 70.5971C108.29 69.8327 108.916 68.9989 108.985 67.9566C109.055 66.9838 110.098 66.4279 111.002 66.4279C112.741 66.4974 112.671 70.2496 111.489 70.9445C110.237 71.7088 109.82 70.8055 108.916 70.2496C108.22 69.8327 107.316 72.1952 107.038 72.5426C106.69 73.0985 105.16 74.9052 105.577 75.5305C106.064 76.2949 107.038 76.7118 106.759 77.8235C106.551 78.7963 105.299 78.7963 105.021 79.5607C104.743 80.325 105.855 81.0893 104.951 81.9232C104.186 82.618 103.143 82.1316 103.073 83.4518C102.934 84.7721 102.656 86.0923 102.795 87.343C103.838 86.7871 105.021 85.6754 106.273 86.1618C107.525 86.6482 107.107 87.9684 107.872 88.8022C109.055 90.1224 109.611 88.8022 109.75 87.621C109.889 86.3702 108.846 86.9956 108.081 87.0651C108.846 85.3974 111.628 84.6331 112.045 82.896C112.254 82.0621 111.211 81.6452 111.072 80.8809C110.933 80.2555 111.767 79.3522 112.184 79.0048C113.506 78.032 115.731 78.3794 116.079 80.1165C116.497 82.3401 114.688 82.5485 113.367 83.5908C112.671 84.1467 112.671 85.05 112.254 85.7449C111.767 86.5787 110.793 87.4125 110.654 88.3853C110.376 90.2614 109.681 92.068 108.29 93.3882C106.899 94.7085 110.028 94.7085 110.654 95.5423C111.558 96.793 110.028 98.2522 109.542 98.9471C107.872 99.0165 107.455 100.823 105.925 100.823C105.368 100.823 104.464 100.267 104.117 100.962C103.699 101.796 103.421 102.63 102.586 103.186C101.056 104.228 98.6221 105.965 96.6747 105.479C95.0751 105.062 93.2668 103.255 93.8232 101.518C94.4491 99.6419 95.701 100.406 96.8834 99.225C98.2048 97.9743 97.8571 96.0982 96.0488 95.4728C94.4491 94.9169 91.1803 95.1949 89.6502 95.8897C87.9114 96.654 87.6332 98.4607 86.729 99.9198C86.6595 99.2945 86.5204 98.7386 86.729 98.1132C86.8681 97.6963 87.2855 97.2099 86.8681 96.932C86.0335 96.2371 86.5204 97.3489 85.8249 97.071C85.4771 96.932 85.0598 96.3761 84.7816 96.0982C84.0166 95.3338 83.2515 96.3761 83.3211 97.2099C83.3906 98.3217 84.9207 98.7386 85.1989 99.7809C83.947 99.9199 83.2515 98.8081 82.0692 98.5996C81.165 98.4607 78.8699 99.503 79.3567 97.4184C79.6349 96.0287 78.1744 94.7085 77.5484 93.6662C77.2702 93.2493 76.6443 91.7901 75.9488 91.8596C75.4619 91.8596 74.7664 92.207 74.4882 91.5816C73.8623 90.4004 74.5578 89.636 74.3491 88.4548C74.21 87.8989 73.3754 85.5364 72.9581 85.3279C72.3322 84.9805 70.3848 83.9382 71.9149 83.1044C72.6799 82.6875 74.4187 82.9655 74.4187 82.0621C74.4187 80.2555 74.4187 78.5184 74.4882 76.7118C74.5578 75.5305 72.4017 74.9052 73.5145 74.0713C74.1405 73.5849 76.7138 72.8901 77.1311 74.0713C77.5484 75.3916 75.4619 75.461 75.0446 76.2254C74.6273 76.9897 75.0446 78.5184 75.0446 79.3522C75.1142 80.8809 75.4619 82.4096 76.0183 83.8688C76.6443 85.3974 77.618 86.5787 78.6612 87.7599C79.774 89.0107 80.6782 90.4004 81.9996 91.5121C81.0955 87.7599 78.6612 84.0077 80.4695 80.0471C80.8173 81.2978 80.6782 82.6875 80.8868 84.0077C81.0955 85.5364 81.5128 86.9956 82.0692 88.3853C83.0429 90.7478 84.2948 93.9441 86.0335 95.8202C85.7553 93.6662 84.1557 91.3732 83.2515 89.3581C82.556 87.7599 80.6086 84.0077 81.791 82.3401C82.6951 83.4518 82.8342 85.7449 83.4602 87.1346C84.1557 88.8022 84.9903 90.3309 85.7553 91.9985C86.3813 93.3188 86.7986 94.639 87.355 95.9592C87.5636 96.4456 88.3287 95.8202 88.4678 95.6118C88.8851 94.9864 87.6332 93.5272 87.355 92.9713C86.4508 91.3037 85.6858 89.7055 85.0598 87.8989C84.8512 87.343 84.7816 86.7871 84.3643 86.3702C83.8775 85.8143 82.9038 85.7449 82.9733 84.8416C83.0429 84.0772 83.8079 83.6603 84.1557 83.0349C84.4339 82.3401 84.5034 81.6452 84.4339 80.8809C84.3643 79.4217 83.947 76.9897 84.9207 75.8085C85.6858 76.9897 85.2685 79.0743 85.1989 80.464C85.1989 81.0198 84.7816 82.2011 85.338 82.618C85.6162 82.8265 86.5899 83.1044 86.5899 82.5485C86.729 80.8809 86.729 79.1437 86.8681 77.4066C87.0072 75.3915 86.8681 73.0985 87.5637 71.2919C88.1201 72.6121 87.8419 74.0018 87.7027 75.3915C87.5636 76.6423 86.9377 78.8658 88.2592 79.6996C89.0938 80.2555 91.3194 79.9081 90.9021 81.2283C90.3457 83.1044 89.372 83.0349 87.7027 82.5485C87.7723 84.0077 88.1896 85.3974 88.5374 86.7871C88.8851 88.1768 89.7893 90.1919 89.2329 91.5121C87.355 90.2614 87.7028 86.7871 86.8681 84.911C84.9903 86.2313 85.964 87.4125 86.7986 89.2191C87.355 90.4004 88.3983 94.4305 89.8588 94.639C90.6934 94.778 91.3194 94.5 91.1107 93.7357C90.8325 92.6934 90.137 91.8596 89.9284 90.6783C89.7197 89.2191 89.5806 86.3007 90.5543 85.1195C91.2498 86.4397 90.8325 88.1768 91.0412 89.636C91.1803 90.9563 91.5976 92.6934 92.3626 93.8052C92.9886 94.7085 95.2142 94.5 96.1183 94.639C97.9266 94.8474 97.3007 93.2493 97.2311 91.9985C97.092 89.4971 100.152 90.0529 100.987 88.1073C101.543 86.9261 101.474 85.4669 101.752 84.2162C102.308 82.896 102.517 81.7147 101.752 80.8114ZM106.62 88.2463C106.273 87.4125 106.203 86.8566 105.16 87.343C104.186 87.7599 103.699 88.5243 102.934 89.0802C102.03 89.775 101.056 89.9835 100.083 90.4004C98.8308 90.9563 98.9699 92.1375 98.9003 93.3187C98.8308 93.8746 98.6917 94.8474 99.3176 95.1949C100.013 95.5423 100.848 94.9169 101.543 95.2643C102.517 95.7507 100.778 97.4879 102.517 97.3489C103.073 97.2794 104.186 96.3066 104.534 97.1404C104.812 97.9743 104.743 98.4607 105.438 99.086C106.273 99.8504 106.829 98.2522 107.246 97.7658C107.803 97.071 108.776 97.9743 109.472 97.1404C110.307 96.1676 109.681 95.6118 108.707 95.4728C108.22 95.4033 106.481 95.6118 106.62 94.639C106.829 93.5272 107.803 92.4155 108.429 91.5121C109.402 89.775 105.994 90.4004 106.62 88.2463ZM97.5789 104.02C100.083 103.186 102.656 102.699 103.352 99.7809C103.63 98.7386 102.726 99.0165 101.961 98.9471C100.709 98.8081 100.709 98.0437 100.152 97.1404C99.3176 95.7507 98.7612 97.9048 98.5526 98.3217C98.2048 99.2945 97.5093 100.128 96.5356 100.545C95.5619 100.893 94.31 100.823 94.7273 102.282C95.0751 103.394 96.3965 104.02 97.5789 104.02ZM77.0616 90.4699C77.4093 91.4427 81.791 98.2522 82.2083 95.0559C82.4169 93.5967 80.7477 92.1375 79.8436 91.0952C78.8003 89.914 77.6875 88.7327 76.7834 87.4125C76.2965 86.7871 75.8792 86.0923 75.4619 85.3974C75.2533 84.9805 74.9055 83.6603 74.4882 83.3824C73.5145 82.8265 73.9318 86.0228 74.0709 86.3007C74.7664 87.5515 75.9488 87.4125 76.9225 88.1768C77.6875 88.8022 77.2007 89.775 77.0616 90.4699Z" fill="#FACFE2"/>
<path d="M109.472 98.9471C110.793 97.9743 116.01 93.5967 116.497 97.5574C116.705 99.225 114.758 99.9199 113.575 100.545C111.698 101.588 109.75 102.63 107.803 103.533C111.141 103.672 114.688 101.588 117.609 100.128C118.653 99.5724 119 97.6268 120.044 96.8625C120.6 96.4456 121.574 95.9592 122.13 96.5846C122.756 97.2794 123.66 96.5151 123.521 95.7507C123.452 94.7779 123.591 93.8052 124.564 93.4577C126.094 92.9019 127.416 94.0831 128.807 93.3188C130.267 92.5544 131.519 91.4427 132.91 90.5393C134.44 89.5666 132.702 88.6632 133.397 87.4125C134.023 86.3702 135.484 85.5364 136.666 86.0228C137.709 86.4397 137.292 89.2191 136.666 89.914C136.318 90.3309 135.831 90.9563 135.275 91.1647C134.649 91.3732 134.162 90.9563 133.536 91.0258C132.354 91.2342 130.963 92.8324 130.059 93.5272C129.572 93.8747 129.085 94.2221 128.668 94.639C128.111 95.1254 128.459 95.5423 128.459 96.1677C128.39 97.6963 126.094 96.932 125.26 97.0015C123.66 97.1405 122.408 98.4607 121.296 99.4335C120.044 100.545 118.027 101.865 117.331 103.325C118.305 103.603 124.217 104.02 124.425 102.977C124.564 102.213 124.425 101.24 125.399 100.962C126.86 100.545 127.207 101.865 127.416 102.977C127.694 104.228 131.867 104.228 132.284 103.186C132.702 102.213 132.215 101.588 133.397 100.893C133.815 100.684 134.093 100.893 134.232 101.31C134.232 101.171 135.762 101.171 135.831 101.171C135.692 102.004 135.414 102.074 135.136 102.699C134.858 103.255 136.597 102.769 136.597 103.255C136.666 104.158 131.38 104.506 130.685 104.575C129.642 104.714 128.32 104.367 127.346 104.645C127.068 104.714 126.303 105.201 125.955 105.131C125.399 104.992 124.843 104.992 124.286 105.201C122.687 105.757 121.017 107.285 119.905 108.258C117.54 109.231 114.966 109.439 112.393 109.37C110.376 109.3 106.968 109.856 105.438 108.467C109.263 107.424 113.645 109.439 117.401 107.841C116.775 107.146 115.94 106.451 116.427 105.479C116.914 104.575 118.235 104.297 119.07 104.714C119.626 104.992 120.113 106.451 120.461 106.521C121.226 106.59 123.591 105.062 124.008 104.506C122.965 103.95 121.226 104.297 120.044 104.297C118.444 104.228 116.775 104.228 115.175 104.436C112.045 104.853 108.498 106.451 105.438 105.409C105.716 105.34 107.177 105.27 107.246 104.923C107.316 104.506 106.203 103.394 106.064 102.977C105.994 102.699 108.359 102.213 108.637 102.143C109.75 101.657 110.793 101.032 111.837 100.337C112.602 99.8504 113.575 99.503 113.506 98.4607C113.506 97.6963 113.297 97.0015 112.463 97.6269C110.933 98.8081 108.29 101.935 106.203 101.796C106.968 100.545 108.846 99.8504 109.472 98.9471ZM118.166 101.24C117.053 101.379 116.079 102.004 115.036 102.421C114.062 102.838 112.671 103.116 111.906 103.811C113.854 104.645 117.053 102.63 118.166 101.24Z" fill="#FACFE2"/>
<path d="M90.6239 56.2831C90.763 59.0625 90.8325 61.9114 91.0412 64.6908C91.1107 65.9415 91.0412 66.9143 90.4152 68.0261C89.9979 68.7209 88.9547 70.1801 88.3287 68.7209C87.4941 66.7059 88.3983 64.3434 90.0675 62.9537C90.8325 62.3283 90.3457 60.1048 90.2761 59.2709C90.137 57.8118 89.9979 56.3526 89.9979 54.8934C90.0675 52.0445 91.2498 49.543 92.2931 46.9721C93.4059 44.2621 94.5883 41.6217 96.0488 39.1202C96.7443 37.8695 97.5094 36.6187 98.2049 35.2985C98.9004 34.0478 98.9699 33.6309 98.7613 32.2412C98.6917 31.7548 98.344 28.9059 99.109 29.2533C99.5959 29.4618 99.5959 31.6853 99.8045 32.2412C100.639 31.7548 101.126 30.921 101.961 30.3651C102.934 29.6702 104.117 29.3228 105.16 28.7669C106.273 28.1415 107.246 27.2382 108.498 26.8213C109.542 26.4739 110.863 26.8213 111.837 26.2654C113.993 24.8757 116.775 24.9452 119.279 24.8063C122.061 24.5978 124.912 24.2504 127.694 24.5283C129.989 24.8062 132.493 25.5706 134.162 27.2382C135.692 28.7669 135.762 30.9904 137.223 32.5191C137.988 33.2834 138.822 33.4919 139.796 33.9783C141.048 34.6037 140.005 35.4375 138.961 35.0206C136.527 34.1173 135.414 32.2412 134.51 29.9482C132.632 25.0147 125.677 25.2232 121.365 25.6401C118.792 25.8485 115.801 25.6401 113.367 26.5434C112.115 27.0298 111.28 27.3772 109.889 27.4467C108.637 27.5162 107.733 28.1415 106.69 28.7669C104.325 30.1566 101.891 31.1294 100.43 33.5614C98.9004 36.1323 97.3703 38.6338 96.0488 41.2743C95.2838 42.4555 89.3024 56.0051 90.6239 56.2831Z" fill="#FACFE2"/>
<path d="M105.09 120.488C106.551 121.808 108.22 121.669 109.82 122.503C108.776 123.406 107.594 122.433 106.62 123.058C105.577 123.684 106.342 125.629 104.464 125.56C103.491 125.56 101.404 123.684 103.004 123.058C103.978 122.642 104.812 121.877 103.769 121.182C102.517 120.349 101.335 119.306 100.152 118.333C99.8741 118.125 99.4568 117.569 99.109 117.361C98.7613 117.222 98.7613 118.194 98.6222 118.333C97.718 119.584 96.327 118.75 97.3007 120.696C97.9962 122.086 98.5526 124.17 99.6654 125.282C100.5 126.116 101.335 126.672 101.265 127.992C101.265 129.521 100.291 130.493 99.0395 129.312C98.5526 128.895 97.6485 128.061 97.718 127.436C97.7876 126.811 98.6222 126.185 98.4135 125.56C98.2049 125.004 97.3007 124.379 96.8834 123.962C96.3966 123.406 95.9097 122.781 95.4229 122.225C94.6578 121.46 92.9191 120.835 93.1973 119.515C93.3364 118.82 93.8928 118.403 93.8928 117.639C93.8928 116.666 93.8232 115.693 93.8232 114.79C93.7537 113.331 93.2668 111.385 94.5187 110.273C95.8402 109.161 97.0921 109.717 98.344 110.482C97.718 110.899 96.953 111.176 96.6748 111.871C96.327 112.566 95.9097 113.192 95.1447 113.331C93.545 113.678 94.5187 118.056 95.2838 119.098C95.7011 117.569 95.2142 115.346 96.0488 114.025C96.2575 114.512 96.1184 115.901 96.8139 115.971C98.0658 116.11 97.5789 114.442 97.6485 113.608C98.6917 114.998 99.5959 116.457 100.848 117.708C102.03 118.82 103.838 119.376 105.09 120.488Z" fill="#FACFE2"/>
<path d="M98.7613 78.6574C98.4831 79.3522 97.3703 81.0199 97.718 81.7147C98.1353 82.5485 99.0395 81.5063 99.4568 81.0894C98.9004 83.2434 97.5789 85.05 96.953 87.1346C96.327 89.2886 96.6747 91.5121 96.2574 93.6662C94.4491 93.1798 95.7706 88.1074 95.9097 86.7871C96.0488 85.3279 96.327 83.8688 96.6052 82.4791C96.8834 81.0894 97.5094 79.6996 97.5789 78.2405C96.7443 78.5879 96.4661 79.4912 95.5619 79.8386C95.1446 80.0471 94.6578 80.0471 94.1709 79.9776C93.8927 79.9081 93.0581 81.0893 92.919 81.2978C91.8062 79.6996 92.3626 77.8235 92.6408 76.0169C92.7799 75.2526 92.8495 74.4883 93.0581 73.7934C93.2668 73.0985 93.8232 72.5427 93.8927 71.8478C92.5017 72.2647 92.6408 74.6272 90.9716 74.6967C90.2066 74.6967 89.0938 74.3493 89.1633 73.3765C89.3024 72.4732 90.4152 71.9868 90.2066 71.0835C89.9284 69.7632 93.1972 70.5276 93.6145 69.5548C94.3796 67.7482 96.8139 69.2074 97.7876 70.2496C98.344 70.875 97.9267 71.6394 98.2049 72.4037C98.344 72.8206 98.344 74.2798 97.4398 73.446C97.0225 73.0985 96.2575 71.5004 95.6315 71.5699C94.7273 71.6393 94.2405 73.7934 94.1014 74.4188C93.8927 75.3916 93.8232 76.4338 93.6145 77.4066C93.4754 78.1015 94.936 76.5033 95.0751 76.3643C95.5619 75.6 95.6315 74.6272 96.8139 74.4188C97.718 74.2103 98.0658 75.8085 98.4135 76.3643C99.109 75.5305 99.5263 73.9324 100.43 73.3765C100.5 75.2526 98.7613 77.1287 98.7613 78.6574Z" fill="#FACFE2"/>
<path d="M125.886 92.4154C123.73 92.068 123.452 91.9985 122.895 89.914C121.991 90.5393 121.504 91.4426 120.878 92.2765C120.113 93.2493 119.07 93.9441 118.096 94.639C117.122 95.3338 116.218 94.2915 115.175 94.5695C113.923 94.9169 113.158 94.5695 111.976 94.7779C112.254 94.0831 113.019 93.1798 113.019 92.4849C113.019 91.7206 112.254 91.4426 112.463 90.6783C112.741 89.5665 113.923 87.9684 115.175 89.0107C116.497 90.1224 113.575 91.3732 115.453 92.1375C116.149 92.4154 117.47 92.1375 117.957 92.7629C118.722 93.6662 119.209 93.1103 119.765 92.4154C120.461 91.5816 121.087 90.7478 121.782 89.914C122.547 89.0801 122.617 88.8022 121.574 88.3853C119.696 87.6905 122.408 85.189 123.73 85.6754C124.495 85.9533 124.495 87.0651 124.773 87.6905C125.19 88.5243 126.234 88.3853 126.86 88.8717C128.598 90.1224 128.251 92.5544 125.886 92.4154Z" fill="#FACFE2"/>
<path d="M127.694 107.077C129.016 106.799 132.632 105.618 131.867 108.119C131.658 108.883 131.38 109.648 130.754 110.204C129.85 110.968 130.059 110.621 130.059 111.732C130.128 112.497 129.294 113.261 128.668 113.539C127.764 113.886 127.068 113.053 126.164 113.261C124.564 113.608 122.13 114.72 120.67 113.747C121.574 112.914 123.173 112.775 124.356 112.705C125.816 112.636 126.86 111.454 128.111 110.76C128.181 110.69 127.764 108.467 127.625 108.328C127.277 108.05 126.79 108.258 126.442 108.258C125.816 108.328 125.469 107.98 124.982 107.633C125.329 107.424 127.555 106.382 127.694 107.077Z" fill="#FACFE2"/>
<path d="M118.792 121.53C119.348 121.599 120.53 122.016 121.017 121.669C121.852 121.182 122.2 120.487 123.243 120.279C124.773 120.001 126.86 120.696 125.955 122.711C125.19 124.448 123.173 125.768 121.713 124.17C121.156 123.614 121.087 122.989 120.113 122.989C119 123.058 118.583 122.642 117.818 121.877C118.166 121.808 118.444 121.669 118.792 121.53Z" fill="#FACFE2"/>
<path d="M112.532 73.7934C112.184 74.6967 111.28 78.9353 109.472 77.6846C108.776 77.1982 109.402 76.3644 109.055 75.739C108.846 75.3916 107.872 76.2254 107.385 75.9474C105.925 74.9746 107.733 72.5426 108.776 72.1257C109.82 71.7088 109.75 72.4732 110.515 72.6816C111.558 72.8206 112.254 72.3342 112.532 73.7934Z" fill="#FACFE2"/>
<path d="M114.966 114.859C113.715 114.79 113.297 114.998 112.254 115.624C111.489 116.11 110.446 116.04 109.959 115.137C109.333 114.025 109.194 113.817 108.011 113.192C106.899 112.566 105.716 112.08 105.16 110.968C107.594 111.315 109.75 112.775 112.115 113.261C113.436 113.539 114.758 113.608 116.079 113.608C117.053 113.608 118.096 113.4 118.931 113.886C118.583 114.373 115.106 115.276 114.966 114.859Z" fill="#FACFE2"/>
<path d="M113.854 124.24C111.211 124.309 113.228 122.503 112.741 121.391C112.463 120.696 111.489 120.696 111.837 119.723C112.115 118.959 112.88 118.472 113.715 118.403C114.41 118.333 115.662 118.611 115.592 119.584C115.523 120.349 114.827 120.835 115.94 121.043C118.653 121.599 115.175 124.101 113.854 124.24Z" fill="#FACFE2"/>
<path d="M110.654 80.3945C110.654 81.5758 110.028 82.9655 108.637 82.618C107.107 82.2011 106.968 83.7298 105.716 84.1467C105.855 83.3129 106.412 82.757 106.62 81.9232C106.968 80.8114 106.69 79.6997 107.316 78.6574C108.776 76.4339 110.167 79.2827 110.654 80.3945Z" fill="#FACFE2"/>
<path d="M116.705 130.285C114.827 130.146 112.949 129.66 111.35 128.548C110.724 128.131 106.273 125.699 107.385 124.657C108.011 124.031 111.906 127.089 112.602 127.506C113.575 128.131 114.619 128.756 115.731 129.034C116.914 129.312 118.027 128.965 119.139 129.173C118.513 130.007 117.679 130.077 116.705 130.285Z" fill="#FACFE2"/>
<path d="M119.07 113.122C117.609 112.636 115.731 113.122 114.41 112.497C112.81 111.732 114.48 110.343 115.592 110.273C116.288 110.204 116.983 110.551 117.748 110.482C118.792 110.412 119.348 110.482 120.183 111.107C120.67 111.454 121.156 111.524 120.948 112.149C120.6 113.053 119.765 112.983 119.07 113.122Z" fill="#FACFE2"/>
<path d="M93.545 113.678C93.3363 115.207 93.3363 116.944 92.6408 118.403C91.8757 116.874 92.4321 115.137 92.4321 113.4C92.4321 112.149 90.4152 112.636 89.7197 111.802C88.3287 110.273 90.902 109.439 92.0844 109.995C92.6408 110.273 93.0581 110.621 93.1972 111.176C93.3363 111.663 93.1972 113.608 93.545 113.678Z" fill="#FACFE2"/>
<path d="M113.575 117.222C111.558 118.403 109.889 117.778 107.872 116.944C105.994 116.179 103.282 115.624 102.447 113.678C104.325 113.747 105.925 115.068 107.664 115.693C109.472 116.318 111.767 117.013 113.575 117.222Z" fill="#FACFE2"/>
<path d="M105.09 120.488C102.865 118.403 100.917 116.318 100.083 113.4C101.682 115.137 102.934 117.222 104.812 118.75C106.62 120.21 108.776 120.349 110.724 121.321C108.776 121.877 106.968 121.043 105.09 120.488Z" fill="#FACFE2"/>
<path d="M82.8342 102.699C82.1387 102.56 79.3567 102.56 79.4263 101.518C79.4263 100.893 79.774 99.5724 80.5391 99.7114C81.5128 99.8504 82.9038 100.267 83.2515 101.24C83.4602 101.865 86.5204 100.962 87.0768 101.101C86.3813 102.421 82.9733 102.143 82.8342 102.699Z" fill="#FACFE2"/>
<path d="M104.117 107.355C104.186 109.717 101.265 111.663 99.0394 111.107C99.9436 109.717 102.239 109.926 102.934 108.467C103.699 106.868 102.517 104.923 103.352 103.325C104.047 104.506 103.978 106.035 104.117 107.355Z" fill="#FACFE2"/>
<path d="M95.9793 81.9232C95.7011 84.0772 95.4229 86.1618 95.0751 88.3158C94.8665 89.7055 94.7969 92.068 93.4059 92.8324C92.8495 91.3732 93.9623 88.8022 94.2405 87.2735C94.5883 85.6059 94.6578 82.6875 95.8402 81.5063C95.9097 81.5757 95.9793 81.7842 95.9793 81.9232Z" fill="#FACFE2"/>
<path d="M141.117 102.908C141.117 103.533 140.77 105.687 139.726 105.27C139.1 105.062 137.362 104.158 137.709 103.325C138.196 101.935 141.117 100.198 141.117 102.908Z" fill="#FACFE2"/>
<path d="M91.1803 114.442C90.9717 115.207 90.9717 116.318 90.1371 116.666C89.372 117.013 88.3287 116.596 88.2592 115.693C88.1896 114.859 88.4679 114.025 89.2329 113.608C90.4153 112.914 90.5544 113.539 91.1803 114.442Z" fill="#FACFE2"/>
<path d="M77.8962 97.6269C77.2007 97.5574 72.2627 95.2644 73.5146 94.5695C74.3492 94.1526 76.0184 95.2644 76.7139 95.6118C77.7571 96.0982 79.2872 96.7236 77.8962 97.6269Z" fill="#FACFE2"/>
<path d="M86.4509 73.307C86.4509 75.1831 83.5298 75.3221 83.3907 73.6544C83.2516 71.8478 86.3813 70.9445 86.4509 73.307Z" fill="#FACFE2"/>
<path d="M92.2235 102.63C92.2931 104.02 89.9979 105.687 89.372 103.811C88.746 102.004 92.2235 100.337 92.2235 102.63Z" fill="#FACFE2"/>
<path d="M89.9284 97.7658C91.9453 97.7658 91.8758 101.032 90.137 100.962C88.6765 100.893 87.8418 97.7658 89.9284 97.7658Z" fill="#FACFE2"/>
<path d="M83.3907 79.2132C83.3907 81.5062 80.8173 80.5334 80.8173 78.7268C80.8173 76.2949 83.4602 77.1287 83.3907 79.2132Z" fill="#FACFE2"/>
<path d="M101.682 80.8114C101.126 82.479 100.57 84.1467 99.9436 85.8143C99.6654 86.6482 99.2481 87.2735 98.7613 88.0379C98.6222 88.1769 98.1353 88.1768 98.2744 87.8989C99.4568 85.328 99.8741 82.896 101.682 80.8114Z" fill="#FACFE2"/>
<path d="M80.2609 78.171C80.1218 80.325 78.1744 80.1166 78.3831 77.9625C78.3831 77.8235 78.8699 76.0864 79.2177 76.2254C80.1218 76.5728 80.2609 77.1982 80.2609 78.171Z" fill="#FACFE2"/>
<path d="M120.183 108.328C121.295 108.189 122.756 108.258 121.921 110.065C121.782 110.412 121.087 111.176 120.6 110.69C119.765 109.856 119.696 109.3 120.183 108.328Z" fill="#FACFE2"/>
<path d="M94.5187 107.424C94.3796 108.606 92.6408 109.37 92.2931 107.911C91.8062 105.965 94.6578 105.409 94.5187 107.424Z" fill="#FACFE2"/>
<path d="M113.575 117.291C113.715 117.083 114.132 115.901 114.48 115.971C115.245 116.04 116.01 116.388 116.566 116.874C117.401 117.569 116.01 117.986 115.523 118.056C114.827 118.125 113.993 117.708 113.575 117.291Z" fill="#FACFE2"/>
</svg>
