<svg width="175" height="164" viewBox="0 0 175 164" fill="none" xmlns="http://www.w3.org/2000/svg">
<path d="M26.9218 38.975C26.9218 41.6849 26.4349 44.8812 27.0609 47.5217C27.3391 48.8419 27.7564 49.8147 27.826 51.2044C27.9651 52.6636 28.3824 54.1228 28.9388 55.443C31.0948 60.3764 34.8505 64.1287 38.6758 67.7419C42.5706 71.4246 47.2305 74.9683 52.2381 76.9834C53.49 77.4698 54.6723 77.8172 55.8547 78.5816C56.7588 79.1375 57.8716 79.207 58.7062 79.9018C59.819 80.8746 59.8886 85.3216 57.7325 84.8353C56.8979 84.6268 56.0633 84.0014 55.8547 83.0981C55.646 82.1948 56.272 81.222 55.9242 80.3882C55.5765 79.4849 53.6986 79.2764 52.9336 78.929C51.473 78.3731 50.082 77.6783 48.6215 76.9834C46.0481 75.7327 43.3356 74.8294 40.6927 73.8566C37.7716 72.8143 34.9896 71.7025 31.9294 71.3551C29.4952 71.0772 26.5045 70.7992 24.0702 71.2856C22.1228 71.633 19.2713 73.4397 18.5062 75.3853C17.6021 77.8173 18.6453 81.083 18.854 83.515C18.9235 84.6268 18.854 85.808 19.2713 86.9198C19.8277 88.1705 21.01 88.7959 21.9837 89.6992C24.0007 91.5753 25.809 93.9378 27.2 96.3003C28.7301 98.8018 28.6606 101.79 30.5384 104.083C32.2772 106.098 34.6419 107.418 37.0066 108.53C38.7453 109.364 38.5367 108.46 38.6758 106.793C38.8149 105.194 38.8844 103.249 39.6495 101.79C42.1533 96.9952 48.4128 94.9106 53.4204 94.2158C56.8979 93.7294 60.445 93.9378 63.9225 94.4242C65.5221 94.6327 67.0522 94.7022 68.7215 94.4937C69.2083 94.4242 69.7647 94.2853 70.2516 94.3547C70.7384 94.4242 71.1557 94.9106 71.6426 95.0496C71.7817 93.0345 70.4602 93.5209 68.9997 92.6871C68.3737 92.3397 67.8173 92.1312 67.6782 91.4364C67.6087 91.0194 67.8868 90.1161 68.2346 90.8805C69.0692 92.5481 71.0862 89.3518 71.8512 90.5331C72.6858 91.8533 74.981 91.2279 76.2329 91.8533C75.0505 92.6871 74.7723 92.8261 74.8419 94.2853C75.6069 94.2158 76.1633 93.3125 76.8588 92.8955C77.2761 94.5632 75.2592 95.9529 74.1464 97.1342C72.8945 98.4544 71.2948 99.4967 69.5561 100.053C67.8173 100.608 65.9394 100.817 64.1311 100.539C63.227 100.4 62.3228 100.122 61.4187 99.7746C60.7232 99.4272 59.4713 99.6356 58.9844 98.8713C58.0803 97.3426 60.5841 95.675 61.836 95.536C64.4789 95.2581 62.3924 97.69 62.1837 98.7323C61.9751 99.7746 66.4263 99.5661 67.0522 99.4967C69.6256 99.2187 71.3644 98.2459 73.0336 96.3698C71.8512 96.3698 70.9471 96.3698 69.7647 96.6478C68.7215 96.8562 67.8173 96.5783 67.1218 95.7444C66.7045 95.258 64.2007 95.4665 63.5052 95.397C61.7664 95.258 59.9581 95.1191 58.1498 95.0496C52.7945 94.9106 46.535 95.8834 42.5706 99.8441C41.8055 100.608 40.6927 101.442 40.345 102.485C39.9277 103.735 39.8581 105.264 39.7886 106.584C39.5799 109.78 39.9972 112.838 40.8318 115.965C41.5273 118.675 42.2924 121.523 43.5443 124.025C44.4484 125.832 46.1176 129.514 48.3433 129.862C49.6647 130.07 50.0125 130.14 50.5689 131.46C50.9862 132.502 51.7512 133.405 52.5163 134.17C54.4637 135.976 56.8284 137.575 58.9149 139.173C61.1405 140.84 63.4356 142.23 65.7308 143.759C67.9564 145.218 69.6952 147.372 71.9903 148.623C74.4246 150.012 74.7028 147.233 74.9114 145.426C75.2592 142.578 75.5374 139.798 75.8851 136.949C76.1633 134.239 77.2066 131.668 77.4152 128.958C77.6239 125.901 78.8062 123.122 79.5713 120.134C79.7799 119.161 80.6841 117.702 80.4059 116.729C80.1277 115.687 78.8758 114.992 78.2498 114.158C76.6502 111.796 76.5111 108.738 76.0938 106.028C76.0242 105.542 76.6502 104.152 76.9284 105.194C77.2761 106.584 77.4848 107.974 77.8325 109.364C78.528 112.351 80.0581 114.019 82.2837 116.034C84.092 117.702 85.3439 119.717 87.2913 121.315C89.5865 123.122 91.7426 125.067 93.9682 126.943C96.0547 128.68 98.1412 130.487 100.436 131.877C103.079 133.405 105.722 133.405 108.643 133.544C111.495 133.683 113.651 133.058 116.294 132.016C119.145 130.835 121.162 131.946 123.457 133.614C125.544 135.143 127.909 135.698 130.134 134.239C132.777 132.433 135.49 130.696 138.202 128.958C140.289 127.569 143.279 126.526 143.627 123.816C143.766 122.566 144.114 121.385 144.74 120.273C145.296 119.3 146.061 118.188 145.505 117.007C144.462 114.853 140.915 114.228 138.828 114.158C135.698 113.95 132.638 114.158 129.578 114.714C123.736 115.687 118.102 116.59 112.121 116.798C111.147 116.798 110.869 115.965 110.034 115.895C109.2 115.826 108.504 116.937 107.739 116.521C106.974 116.104 106.904 115.061 107.113 114.297C107.391 113.116 108.852 112.838 109.895 112.629C110.869 112.49 111.634 112.768 111.773 113.88C111.912 115.2 111.773 115.2 113.303 115.131C116.572 114.922 119.771 114.853 123.04 114.366C125.892 113.88 128.604 112.977 131.456 112.699C134.585 112.351 137.715 112.56 140.845 112.699C142.723 112.838 145.922 114.297 147.035 115.895C148.426 117.91 146.131 120.759 145.644 122.705C145.366 123.816 145.505 125.067 145.088 126.11C144.67 127.152 143.488 127.638 142.584 128.194C140.08 129.792 137.715 131.668 135.142 133.266C130.412 136.115 126.031 139.312 120.328 139.242C117.615 139.173 114.833 138.617 112.26 137.644C111.147 137.227 110.73 136.602 109.895 135.768C109.061 134.865 107.391 135.073 106.279 135.004C105.444 134.934 103.775 135.143 103.079 134.726C102.036 134.1 100.923 133.753 99.7408 133.405C98.5585 133.058 97.4457 132.78 96.3329 132.363C95.4287 132.016 94.6637 131.321 93.69 131.112C93.8986 132.919 95.846 135.282 97.0979 136.532C98.9758 138.478 102.106 140.285 104.609 141.327C105.653 141.744 106.835 141.605 107.878 142.022C108.921 142.508 109.826 143.342 110.869 143.898C113.512 145.426 116.016 145.496 119.006 145.357C121.788 145.218 124.848 145.357 127.561 144.732C130.691 144.106 133.334 143.064 136.602 143.62C139.384 144.037 141.819 143.62 144.392 142.786C145.713 142.369 147.174 142.091 148.565 142.091C149.261 142.091 150.026 142.161 150.721 142.3C151.347 142.439 152.251 142.925 152.877 142.786C153.642 142.578 153.712 140.493 153.851 139.937C154.199 138.547 154.546 137.227 154.964 135.837C155.729 133.197 157.746 130.696 159.415 128.542C161.084 126.457 162.892 124.442 164.422 122.218C165.118 121.176 165.953 119.995 166.439 118.814C166.787 117.841 164.701 117.841 164.144 117.771C163.031 117.493 161.571 117.354 160.528 116.729C159.554 116.173 158.858 114.992 158.233 114.089C156.702 111.935 155.52 109.086 156.633 106.445C157.607 104.013 158.233 102.901 155.798 101.164C153.225 99.3577 150.791 98.6628 147.661 98.1764C141.471 97.2036 135.211 96.9952 128.952 96.5088C126.379 96.3003 123.457 96.2309 120.954 95.4665C119.98 95.1886 121.997 94.7717 122.206 94.7717L127.213 95.1886C133.125 95.675 139.245 95.536 145.088 96.5088C150.165 97.3426 157.189 97.6205 159.276 103.318C159.693 104.43 160.528 105.264 161.015 106.306C161.571 107.487 161.71 108.738 162.127 109.989C162.475 111.17 162.823 112.56 163.449 113.602C163.797 114.297 165.396 115.826 166.231 115.756C166.857 115.687 167.552 113.255 167.761 112.768L169.221 109.016C170.404 106.167 171.934 104.222 171.795 101.025C171.656 98.2459 172.49 95.675 172.629 92.965C172.699 91.5753 172.003 90.811 171.586 89.5603C171.099 88.24 171.517 86.5029 171.447 85.1132C171.308 79.2764 170.543 72.6753 168.596 67.1165C167.622 64.4066 166.439 61.0713 164.562 58.9172C162.684 56.8327 159.763 56.2073 157.12 55.6514C150.095 54.2617 142.931 55.5125 136.046 56.9022C129.508 58.1529 124.014 62.322 118.519 65.8658C115.598 67.7419 112.816 69.34 109.686 70.7297C108.504 71.2856 107.252 71.8415 106.209 72.6753C105.096 73.5091 104.54 74.8294 103.427 75.6632C103.01 73.3702 105.583 71.772 107.322 70.9382C109.826 69.618 112.469 68.7147 114.903 67.186C119.771 64.0592 124.501 60.3764 129.856 58.0834C131.108 57.5275 132.36 57.1106 133.681 56.7632C134.516 56.4853 136.116 56.3463 136.742 55.6514C137.089 55.304 136.881 54.7481 137.02 54.3312C137.228 53.7058 137.576 53.2195 137.785 52.5941C138.202 51.1349 137.993 49.7452 137.993 48.2165C137.993 46.8963 138.619 45.7845 138.48 44.4643C138.341 43.1441 137.993 41.8934 137.646 40.5731C136.881 37.7242 136.742 34.5279 134.933 32.0959C133.334 30.0114 132.082 28.1353 129.786 26.7456C128.952 26.2592 127.7 25.7728 127.561 24.661C127.352 23.6187 127.978 22.9239 128.396 24.1746C128.674 25.0779 129.856 25.2864 130.621 25.7033C131.664 26.1897 132.638 26.954 133.403 27.8573C135.142 29.9419 136.742 32.0959 137.646 34.6669C138.55 37.3073 139.106 40.0867 139.663 42.7967C139.941 44.1864 140.08 45.6456 139.732 47.1048C139.384 48.4945 139.593 49.6757 139.524 51.0654C139.454 52.3162 139.106 53.5669 138.48 54.7481C137.785 56.0684 140.08 55.3735 140.567 55.304C143.766 54.8176 147.035 54.1922 150.234 54.0533C155.172 53.7753 162.406 54.4007 165.953 58.3614C169.639 62.3915 170.473 68.7842 171.725 73.8566C172.421 76.775 172.908 79.6934 173.047 82.6812C173.116 84.2099 173.047 85.7386 173.116 87.1978C173.186 88.7959 173.673 89.6992 174.09 91.0889C174.925 93.5904 173.742 96.8562 173.534 99.3577C173.464 100.747 173.603 102.207 173.325 103.596C173.047 105.125 172.073 106.584 171.447 107.974C170.265 110.406 168.317 113.116 167.761 115.756C167.483 116.937 167.761 118.119 167.413 119.369C166.996 120.759 166.231 121.94 165.396 123.122C161.849 127.916 158.163 132.155 155.59 137.505C154.685 139.451 156.076 142.161 154.964 143.967C154.546 144.662 153.642 144.315 153.016 144.245C152.251 144.176 152.46 145.287 151.695 145.565C150.443 146.052 149.052 146.26 147.73 146.121C146.409 145.982 145.296 145.357 143.975 145.079C142.792 144.871 141.471 145.357 140.358 145.357C138.689 145.426 137.02 145.148 135.351 145.148C132.151 145.218 129.161 146.121 126.031 146.538C123.04 146.955 119.771 147.233 116.711 147.164C114.068 147.094 111.564 146.191 109.339 144.732C106.904 143.203 104.122 142.717 101.688 141.257C99.5322 140.007 97.4457 138.339 95.846 136.393C95.081 135.56 94.455 134.587 93.9682 133.614C93.4118 132.572 93.2031 131.043 92.4381 130.14C91.7426 129.375 90.5602 128.889 89.7256 128.125C88.7519 127.221 87.9868 126.11 87.2913 124.928C85.9699 122.496 84.718 120.134 82.4228 118.466C81.6578 119.856 81.3796 121.385 80.9623 122.844C80.6145 124.164 79.9886 125.623 79.8495 127.013C79.4322 130.557 78.528 134.031 77.9021 137.575C77.2761 140.84 77.3457 144.245 76.6502 147.511C76.372 148.623 76.0938 149.943 75.1201 150.638C74.0768 151.402 73.1031 150.846 71.9903 150.846C72.7554 153 74.2159 155.502 76.5806 156.127C79.3626 156.822 80.3363 157.934 82.0751 160.088C83.0488 161.269 86.4567 159.532 87.6391 159.323C89.0301 159.046 90.4907 158.837 91.8817 158.768C92.9249 158.698 94.1768 158.907 95.1505 158.559C96.3329 158.142 95.4287 155.502 95.3592 154.668C95.2896 152.861 96.0547 151.819 97.5848 150.916C99.6713 149.804 102.106 149.943 104.122 148.901C105.027 148.414 105.722 147.65 106.139 146.677C106.418 145.982 107.322 143.898 108.156 145.218C109.061 146.538 107.461 150.082 106.696 151.333C106.139 152.236 105.027 152.792 104.54 153.765C103.844 155.085 103.566 155.78 102.175 156.614C97.7934 158.976 93.9682 164.396 88.4042 163.354C86.0394 162.937 83.5356 163.493 81.2405 162.798C79.0149 162.172 76.4415 160.713 74.4941 159.393C72.4076 158.003 71.3644 155.849 69.7647 153.973C67.9564 151.958 65.7308 150.36 63.8529 148.345C59.9581 144.176 55.5069 140.979 50.9862 137.575C50.082 136.88 49.6647 135.768 49.3865 134.726C49.2474 134.17 49.1779 133.614 49.0388 133.058C48.9692 132.78 49.3865 132.433 49.317 132.155C49.2474 131.946 47.2304 131.529 46.8827 131.321C45.7699 130.626 45.0744 129.584 44.3789 128.542C43.6138 127.43 42.9183 126.248 42.3619 125.067C42.0837 124.442 41.736 122.149 41.11 121.871C40.5536 121.593 38.7453 122.774 38.1889 123.052C36.7979 123.608 35.4069 124.303 33.8768 123.816C31.373 123.052 29.217 122.288 26.9218 121.037C24.5571 119.717 21.7055 119.578 19.4799 117.841C15.0287 114.297 12.4554 109.433 9.18651 104.917C7.6564 102.762 6.05675 100.608 4.8744 98.2459C3.55294 95.675 2.64879 92.7566 1.81419 90.0466C0.979588 87.2672 0.979588 84.5573 1.18824 81.6389C1.25779 80.3187 1.74464 79.068 1.74464 77.8173C1.81419 76.3581 0.979588 75.4547 0.840488 74.065C0.562287 71.5636 0.770938 68.7842 1.25779 66.2827C1.46644 65.1709 1.32734 63.9202 1.95329 62.8779C2.57924 61.7662 2.99654 60.6544 3.62249 59.5426C4.80485 57.4581 6.6827 56.7632 8.56056 55.582C10.4384 54.4007 11.273 52.1772 13.5682 51.4823C14.6114 51.2044 15.5851 51.4128 16.3502 50.5095C17.0457 49.6757 17.9498 49.0503 18.9235 48.6334C21.01 47.7996 23.4443 47.8691 25.0439 49.6062C22.6097 49.3283 20.4536 48.7029 18.2976 50.2316C17.463 50.7875 16.9761 52.0382 15.9329 52.3161C14.681 52.5941 13.6377 52.3856 12.5249 53.15C11.6208 53.7753 11.1339 54.6786 10.4384 55.5125C9.67336 56.4158 8.63011 56.9022 7.58685 57.3886C6.6827 57.8055 5.8481 58.4308 5.1526 59.1952C4.318 60.168 4.38755 61.8356 3.55294 62.6C2.71834 63.4338 2.57924 64.615 2.50969 65.7268C2.44014 66.9775 1.81419 68.0893 1.88374 69.34C1.95329 70.7297 1.95329 71.9805 1.88374 73.3702C1.81419 74.7599 2.99654 75.6632 3.06609 76.9834C3.13564 78.2342 2.50969 79.4154 2.30104 80.6661C2.09239 82.0558 2.02284 83.515 2.09239 84.9047C2.16194 87.7536 3.41384 90.3941 4.24845 93.104C5.9872 98.5239 9.46471 102.693 12.5945 107.418C15.446 111.726 18.9235 116.451 24.0007 118.397C24.9048 118.744 26.5741 118.814 27.2696 119.439C28.1737 120.273 29.3561 120.829 30.5384 121.246C31.7208 121.662 32.9727 122.218 34.2246 122.427C35.9633 122.705 37.1457 121.94 38.6758 121.315C39.5104 120.968 40.9014 120.898 40.5536 119.647C40.2059 118.466 39.9277 117.215 39.6495 115.965C39.3713 114.783 39.3017 113.394 38.954 112.282C38.6062 111.17 36.7979 110.962 35.8938 110.545C33.3204 109.503 30.8166 107.626 29.1474 105.403C27.4087 103.11 27.4782 99.983 25.9481 97.4816C24.3484 94.8411 21.9837 92.2007 19.6886 90.1856C17.2543 88.0316 18.0889 85.4606 17.7412 82.6117C17.3934 79.6934 16.072 76.775 18.228 74.2735C19.8277 72.3974 21.8446 70.8687 24.418 70.5908C27.3391 70.2433 30.8862 70.4518 33.8073 70.9382C35.3374 71.2161 36.8675 71.6331 38.3976 72.1889C39.5799 72.6059 41.1796 73.6481 42.4315 73.5786C41.8055 72.3974 40.4841 71.4246 39.5799 70.4518C38.5367 69.4095 37.4934 68.2978 36.3806 67.2555C35.3374 66.2132 34.2941 65.1014 33.2509 64.0592C32.3467 63.0864 31.9294 61.4882 31.0253 60.5849C29.2865 58.9867 28.7997 56.5548 27.6869 54.5397C27.0609 53.4974 27.2 51.6908 27.0609 50.5095C26.8522 48.7724 26.7132 46.9658 26.5741 45.2286C26.1567 39.1139 26.0872 32.6518 27.4087 26.6761C27.6869 25.2864 28.1042 23.8967 28.4519 22.507C28.7301 21.3952 28.8692 19.8665 29.5647 18.8937C31.1644 16.7397 33.5291 19.3801 35.1287 17.7125C36.7979 15.9754 37.4934 13.4044 39.0931 11.5978C40.7623 9.72166 43.4747 9.58269 45.3526 8.1235C47.4391 6.52534 49.6647 5.06615 51.8903 3.67645C54.5332 2.0088 57.2457 1.52241 60.2363 1.10549C63.0183 0.758068 66.009 0.619095 68.7215 1.24446C69.7647 1.5224 70.808 2.0088 71.573 2.77314C72.6858 3.95439 73.8682 4.16284 75.3287 4.71873C80.2668 6.59483 84.5093 10.0691 86.3872 15.072C86.6654 15.8364 85.8308 16.5312 85.2744 15.8364C84.5789 14.9331 84.2311 13.9603 83.6747 12.9875C82.7706 11.4588 81.3796 10.2081 80.0581 9.09629C77.2761 6.73379 73.6595 5.96946 70.7384 3.95438C68.9997 2.70365 67.6087 2.35623 65.4526 2.14777C63.3661 1.93932 61.21 2.07829 59.1235 2.28674C54.7419 2.70365 51.3339 4.92718 47.7869 7.42865C46.0481 8.67938 44.6571 9.5827 42.6401 10.347C41.11 10.9029 39.9277 12.0147 39.0235 13.2654C37.9107 14.7246 36.937 16.3923 35.8242 17.8514C34.5028 19.6581 33.6682 19.0327 31.7208 18.9632C30.4689 18.8937 30.1211 20.075 29.9125 21.1173C29.4256 23.1323 28.7997 25.0779 28.3128 27.093C27.6869 27.5099 26.7827 38.975 26.9218 38.975ZM96.472 153.973C96.6111 155.293 96.5415 156.891 96.9588 158.142C98.3498 157.586 99.6017 156.405 100.854 155.571C102.175 154.668 102.731 153.904 103.636 152.653C104.401 151.611 105.513 151.055 106.07 149.804C106.487 148.901 107.252 147.303 107.044 146.26C105.513 148.067 104.679 149.526 102.106 149.873C100.089 150.221 96.1242 151.194 96.472 153.973ZM121.232 137.991C122.623 137.714 125.474 137.644 126.448 136.741C125.544 136.046 124.222 135.837 123.318 135.212C122.136 134.378 121.162 133.336 119.702 133.058C118.172 132.78 116.92 133.336 115.598 134.031C114.138 134.795 112.469 134.726 110.938 135.282C113.025 137.644 118.241 137.783 121.232 137.991ZM157.537 108.669C158.024 110.614 159.206 113.324 160.736 114.714C161.849 115.756 164.492 116.868 165.953 116.312C164.353 114.853 162.684 114.367 161.849 112.073C161.362 110.753 160.945 109.433 160.458 108.113C160.11 107.21 159.902 105.889 158.928 105.472C158.302 106.584 157.607 107.418 157.537 108.669ZM72.6858 154.39C71.9208 152.861 70.7384 151.611 69.6952 150.221C69.3474 149.804 68.9301 149.457 68.5824 148.97C68.3042 148.484 68.5128 147.858 68.2346 147.511C67.2609 146.26 65.4526 145.148 64.1311 144.245C62.4619 143.064 60.5145 141.396 58.5671 140.771C59.3322 142.022 60.8623 142.855 61.836 143.828C63.227 145.218 64.5484 146.677 66.009 148.067C67.1913 149.248 68.5128 150.29 69.6952 151.402C70.5993 152.305 71.4339 154.112 72.4772 154.737C72.5467 154.598 72.6163 154.46 72.6858 154.39ZM92.9945 159.462C92.9249 158.976 84.9266 160.435 84.092 161.2C84.9266 161.617 85.9003 161.269 86.8045 161.339C87.8477 161.478 88.7519 161.894 89.7952 161.894C91.9512 161.894 93.5509 160.852 95.2201 159.601C94.455 159.462 93.7595 159.462 92.9945 159.462ZM74.2159 156.475C73.7986 156.683 76.5111 158.212 76.8588 158.42C77.9021 159.046 79.3626 160.366 80.6145 160.296C79.7104 157.378 76.8588 157.03 74.2159 156.475ZM149.052 142.925C148.078 143.064 146.409 142.925 145.644 143.62C146.965 144.662 150.026 144.593 151.347 143.62C150.86 143.064 149.817 143.064 149.052 142.925ZM50.082 133.683C49.9429 135.143 51.5426 135.976 52.5858 136.671C53.6986 137.436 55.0201 138.686 56.3415 139.173C55.9938 138.13 54.1855 137.019 53.3509 136.324C52.3076 135.49 51.1948 134.239 50.082 133.683ZM88.8214 124.511C88.0564 124.859 89.517 125.762 89.7952 125.971C90.4907 126.526 91.5339 127.916 92.4381 127.847C91.6035 126.665 90.0038 125.345 88.8214 124.511Z" fill="#EAE8E8"/>
<path d="M88.7519 67.8114C89.0996 67.1166 89.8647 66.0743 89.8647 65.31C89.8647 63.5034 88.4737 66.2828 88.4737 66.3522C87.5 68.0894 85.6221 67.3945 85.7612 65.7269C86.0394 65.2405 86.3176 64.7541 86.7349 64.3372C87.5 63.6423 87.7782 64.1982 88.6128 63.8508C89.1692 63.6423 89.4474 62.9475 90.0038 62.739C90.7688 62.4611 91.3252 62.5305 91.9512 61.9747C90.8384 61.0714 89.8647 60.0986 88.891 59.0563C88.4041 58.5004 89.0301 57.4581 89.7951 57.7361C90.6993 58.153 91.7425 57.8055 92.7162 58.0835C94.0377 58.5004 93.7595 58.7783 94.6637 57.5971C95.2896 56.8328 95.9155 55.9989 95.9851 54.9566C96.0546 53.9838 97.0979 53.428 98.0021 53.428C99.7408 53.4975 99.6713 57.2497 98.4889 57.9445C97.237 58.7089 96.8197 57.8056 95.9156 57.2497C95.2201 56.8328 94.3159 59.1953 94.0377 59.5427C93.6899 60.0986 92.1598 61.9052 92.5771 62.5306C93.064 63.2949 94.0377 63.7118 93.7595 64.8236C93.5508 65.7964 92.2989 65.7964 92.0207 66.5607C91.7425 67.325 92.8553 68.0894 91.9512 68.9232C91.1861 69.618 90.1429 69.1317 90.0733 70.4519C89.9342 71.7721 89.656 73.0923 89.7951 74.3431C90.8384 73.7872 92.0207 72.6754 93.2726 73.1618C94.5245 73.6482 94.1073 74.9684 94.8723 75.8022C96.0547 77.1225 96.6111 75.8022 96.7502 74.621C96.8893 73.3703 95.846 73.9956 95.0809 74.0651C95.846 72.3975 98.628 71.6331 99.0453 69.896C99.254 69.0622 98.2107 68.6453 98.0716 67.8809C97.9325 67.2555 98.7671 66.3522 99.1844 66.0048C100.506 65.032 102.731 65.3794 103.079 67.1166C103.497 69.3401 101.688 69.5486 100.367 70.5908C99.6713 71.1467 99.6713 72.05 99.254 72.7449C98.7671 73.5787 97.7934 74.4125 97.6543 75.3853C97.3761 77.2614 96.6806 79.068 95.2896 80.3883C93.8986 81.7085 97.0284 81.7085 97.6543 82.5423C98.5585 83.7931 97.0284 85.2522 96.5415 85.9471C94.8723 86.0166 94.455 87.8232 92.9249 87.8232C92.3685 87.8232 91.4643 87.2673 91.1166 87.9622C90.6993 88.796 90.4211 89.6298 89.5865 90.1857C88.0564 91.228 85.6221 92.9651 83.6747 92.4787C82.0751 92.0618 80.2668 90.2552 80.8232 88.5181C81.4491 86.642 82.701 87.4063 83.8834 86.225C85.2048 84.9743 84.8571 83.0982 83.0488 82.4728C81.4491 81.9169 78.1803 82.1949 76.6502 82.8897C74.9114 83.6541 74.6332 85.4607 73.729 86.9199C73.6595 86.2945 73.5204 85.7386 73.729 85.1133C73.8681 84.6964 74.2855 84.21 73.8681 83.932C73.0335 83.2372 73.5204 84.3489 72.8249 84.071C72.4771 83.932 72.0598 83.3761 71.7816 83.0982C71.0166 82.3339 70.2515 83.3761 70.3211 84.21C70.3906 85.3217 71.9207 85.7386 72.1989 86.7809C70.947 86.9199 70.2515 85.8081 69.0692 85.5997C68.165 85.4607 65.8699 86.503 66.3567 84.4184C66.6349 83.0287 65.1744 81.7085 64.5484 80.6662C64.2702 80.2493 63.6443 78.7901 62.9488 78.8596C62.4619 78.8596 61.7664 79.207 61.4882 78.5816C60.8623 77.4004 61.5578 76.6361 61.3491 75.4548C61.21 74.8989 60.3754 72.5364 59.9581 72.328C59.3322 71.9805 57.3848 70.9383 58.9149 70.1045C59.6799 69.6875 61.4187 69.9655 61.4187 69.0622C61.4187 67.2556 61.4187 65.5184 61.4882 63.7118C61.5578 62.5305 59.4017 61.9052 60.5145 61.0714C61.1405 60.585 63.7138 59.8901 64.1311 61.0714C64.5484 62.3916 62.4619 62.4611 62.0446 63.2254C61.6273 63.9897 62.0446 65.5184 62.0446 66.3522C62.1142 67.8809 62.4619 69.4096 63.0183 70.8688C63.6443 72.3975 64.618 73.5787 65.6612 74.76C66.774 76.0107 67.6782 77.4004 68.9996 78.5122C68.0955 74.76 65.6612 71.0078 67.4695 67.0471C67.8173 68.2978 67.6782 69.6875 67.8868 71.0078C68.0955 72.5364 68.5128 73.9956 69.0692 75.3853C70.0429 77.7478 71.2948 80.9441 73.0335 82.8203C72.7553 80.6662 71.1557 78.3732 70.2515 76.3581C69.556 74.76 67.6086 71.0078 68.791 69.3401C69.6951 70.4519 69.8342 72.7449 70.4602 74.1346C71.1557 75.8022 71.9903 77.3309 72.7553 78.9986C73.3813 80.3188 73.7986 81.639 74.355 82.9592C74.5636 83.4456 75.3287 82.8203 75.4678 82.6118C75.8851 81.9864 74.6332 80.5272 74.355 79.9714C73.4508 78.3037 72.6858 76.7055 72.0598 74.8989C71.8512 74.3431 71.7816 73.7872 71.3643 73.3702C70.8775 72.8144 69.9038 72.7449 69.9733 71.8416C70.0429 71.0772 70.8079 70.6603 71.1557 70.035C71.4339 69.3401 71.5034 68.6453 71.4339 67.8809C71.3643 66.4217 70.947 63.9897 71.9207 62.8085C72.6858 63.9897 72.2685 66.0743 72.1989 67.464C72.1989 68.0199 71.7816 69.2011 72.338 69.618C72.6162 69.8265 73.5899 70.1044 73.5899 69.5486C73.729 67.8809 73.729 66.1438 73.8681 64.4066C74.0072 62.3916 73.8681 60.0986 74.5637 58.2919C75.1201 59.6122 74.8419 61.0019 74.7027 62.3916C74.5636 63.6423 73.9377 65.8659 75.2592 66.6997C76.0938 67.2556 78.3194 66.9081 77.9021 68.2283C77.3457 70.1044 76.372 70.035 74.7027 69.5486C74.7723 71.0077 75.1896 72.3975 75.5374 73.7872C75.8851 75.1769 76.7893 77.192 76.2329 78.5122C74.355 77.2614 74.7028 73.7872 73.8681 71.9111C71.9903 73.2313 72.964 74.4125 73.7986 76.2191C74.355 77.4004 75.3983 81.4306 76.8588 81.639C77.6934 81.778 78.3194 81.5 78.1107 80.7357C77.8325 79.6934 77.137 78.8596 76.9284 77.6783C76.7197 76.2192 76.5806 73.3008 77.5543 72.1195C78.2498 73.4397 77.8325 75.1769 78.0412 76.6361C78.1803 77.9563 78.5976 79.6934 79.3626 80.8052C79.9886 81.7085 82.2142 81.5 83.1183 81.639C84.9266 81.8475 84.3007 80.2493 84.2311 78.9986C84.092 76.4971 87.1522 77.053 87.9868 75.1074C88.5432 73.9261 88.4737 72.467 88.7519 71.2162C89.3083 69.896 89.5169 68.7147 88.7519 67.8114ZM93.6204 75.2464C93.2726 74.4125 93.2031 73.8567 92.1598 74.3431C91.1861 74.76 90.6993 75.5243 89.9342 76.0802C89.0301 76.775 88.0564 76.9835 87.0827 77.4004C85.8308 77.9563 85.9699 79.1375 85.9003 80.3188C85.8308 80.8747 85.6917 81.8475 86.3176 82.1949C87.0131 82.5423 87.8477 81.917 88.5432 82.2644C89.5169 82.7508 87.7782 84.4879 89.5169 84.3489C90.0733 84.2795 91.1861 83.3066 91.5339 84.1405C91.8121 84.9743 91.7425 85.4607 92.438 86.0861C93.2726 86.8504 93.829 85.2523 94.2463 84.7659C94.8027 84.071 95.7764 84.9743 96.4719 84.1405C97.3065 83.1677 96.6806 82.6118 95.7069 82.4728C95.2201 82.4033 93.4813 82.6118 93.6204 81.639C93.829 80.5273 94.8027 79.4155 95.4287 78.5122C96.4024 76.775 92.9944 77.4004 93.6204 75.2464ZM84.5789 91.0195C87.0827 90.1857 89.656 89.6993 90.3515 86.7809C90.6297 85.7386 89.7256 86.0166 88.9605 85.9471C87.7086 85.8081 87.7086 85.0438 87.1522 84.1405C86.3176 82.7508 85.7612 84.9048 85.5526 85.3217C85.2048 86.2945 84.5093 87.1284 83.5356 87.5453C82.5619 87.8927 81.31 87.8232 81.7273 89.2824C82.0751 90.3942 83.3965 91.0195 84.5789 91.0195ZM64.0616 77.4699C64.4093 78.4427 68.791 85.2522 69.2083 82.0559C69.4169 80.5967 67.7477 79.1375 66.8436 78.0953C65.8003 76.914 64.6875 75.7327 63.7834 74.4125C63.2965 73.7872 62.8792 73.0923 62.4619 72.3975C62.2533 71.9805 61.9055 70.6603 61.4882 70.3824C60.5145 69.8265 60.9318 73.0228 61.0709 73.3008C61.7664 74.5515 62.9488 74.4125 63.9225 75.1769C64.6875 75.8022 64.2007 76.775 64.0616 77.4699Z" fill="#EAE8E8"/>
<path d="M96.472 85.9471C97.7934 84.9743 103.01 80.5967 103.497 84.5574C103.705 86.225 101.758 86.9199 100.575 87.5452C98.6976 88.5875 96.7502 89.6298 94.8028 90.5331C98.1412 90.6721 101.688 88.5875 104.609 87.1283C105.653 86.5724 106 84.6268 107.044 83.8625C107.6 83.4456 108.574 82.9592 109.13 83.5846C109.756 84.2794 110.66 83.5151 110.521 82.7507C110.452 81.7779 110.591 80.8052 111.564 80.4577C113.094 79.9019 114.416 81.0831 115.807 80.3188C117.267 79.5544 118.519 78.4427 119.91 77.5393C121.44 76.5666 119.702 75.6632 120.397 74.4125C121.023 73.3702 122.484 72.5364 123.666 73.0228C124.709 73.4397 124.292 76.2191 123.666 76.914C123.318 77.3309 122.831 77.9563 122.275 78.1647C121.649 78.3732 121.162 77.9563 120.536 78.0258C119.354 78.2342 117.963 79.8324 117.059 80.5272C116.572 80.8747 116.085 81.2221 115.668 81.639C115.111 82.1254 115.459 82.5423 115.459 83.1677C115.39 84.6963 113.094 83.932 112.26 84.0015C110.66 84.1405 109.408 85.4607 108.296 86.4335C107.044 87.5452 105.027 88.8655 104.331 90.3247C105.305 90.6026 111.217 91.0195 111.425 89.9772C111.564 89.2129 111.425 88.2401 112.399 87.9621C113.86 87.5452 114.207 88.8655 114.416 89.9772C114.694 91.228 118.867 91.228 119.284 90.1857C119.702 89.2129 119.215 88.5875 120.397 87.8927C120.815 87.6842 121.093 87.8927 121.232 88.3096C121.232 88.1706 122.762 88.1706 122.831 88.1706C122.692 89.0044 122.414 89.0739 122.136 89.6993C121.858 90.2552 123.597 89.7688 123.597 90.2552C123.666 91.1585 118.38 91.5059 117.685 91.5754C116.642 91.7144 115.32 91.3669 114.346 91.6449C114.068 91.7144 113.303 92.2007 112.955 92.1313C112.399 91.9923 111.843 91.9923 111.286 92.2007C109.687 92.7566 108.017 94.2853 106.905 95.2581C104.54 96.2309 101.966 96.4393 99.3931 96.3699C97.3761 96.3004 93.9682 96.8563 92.4381 95.4666C96.2633 94.4243 100.645 96.4394 104.401 94.8412C103.775 94.1463 102.94 93.4515 103.427 92.4787C103.914 91.5754 105.235 91.2974 106.07 91.7144C106.626 91.9923 107.113 93.4515 107.461 93.521C108.226 93.5904 110.591 92.0618 111.008 91.5059C109.965 90.95 108.226 91.2974 107.044 91.2974C105.444 91.228 103.775 91.2279 102.175 91.4364C99.0453 91.8533 95.4983 93.4515 92.4381 92.4092C92.7163 92.3397 94.1768 92.2702 94.2464 91.9228C94.3159 91.5059 93.2031 90.3941 93.064 89.9772C92.9945 89.6993 95.3592 89.2129 95.6374 89.1434C96.7502 88.657 97.7934 88.0316 98.8367 87.3368C99.6017 86.8504 100.575 86.503 100.506 85.4607C100.506 84.6963 100.297 84.0015 99.4626 84.6269C97.9325 85.8081 95.2896 88.9349 93.2031 88.796C93.9682 87.5452 95.846 86.8504 96.472 85.9471ZM105.166 88.2401C104.053 88.3791 103.079 89.0044 102.036 89.4213C101.062 89.8382 99.6713 90.1162 98.9062 90.811C100.854 91.6449 104.053 89.6298 105.166 88.2401Z" fill="#EAE8E8"/>
<path d="M77.6239 43.283C77.763 46.0624 77.8325 48.9113 78.0412 51.6907C78.1107 52.9415 78.0412 53.9143 77.4152 55.026C76.9979 55.7209 75.9547 57.1801 75.3287 55.7209C74.4941 53.7058 75.3983 51.3433 77.0675 49.9536C77.8325 49.3282 77.3457 47.1047 77.2761 46.2709C77.137 44.8117 76.9979 43.3525 76.9979 41.8933C77.0675 39.0444 78.2498 36.543 79.2931 33.972C80.4059 31.2621 81.5883 28.6216 83.0488 26.1202C83.7443 24.8694 84.5094 23.6187 85.2049 22.2985C85.9004 21.0477 85.9699 20.6308 85.7613 19.2411C85.6917 18.7547 85.344 15.9058 86.109 16.2533C86.5959 16.4617 86.5959 18.6852 86.8045 19.2411C87.6391 18.7547 88.126 17.9209 88.9606 17.365C89.9343 16.6702 91.1166 16.3227 92.1599 15.7668C93.2727 15.1415 94.2464 14.2382 95.4983 13.8213C96.5415 13.4738 97.863 13.8213 98.8367 13.2654C100.993 11.8757 103.775 11.9452 106.279 11.8062C109.061 11.5977 111.912 11.2503 114.694 11.5282C116.989 11.8062 119.493 12.5705 121.162 14.2382C122.692 15.7669 122.762 17.9904 124.223 19.519C124.988 20.2834 125.822 20.4918 126.796 20.9782C128.048 21.6036 127.005 22.4374 125.961 22.0205C123.527 21.1172 122.414 19.2411 121.51 16.9481C119.632 12.0146 112.677 12.2231 108.365 12.64C105.792 12.8485 102.801 12.64 100.367 13.5433C99.1149 14.0297 98.2803 14.3771 96.8893 14.4466C95.6374 14.5161 94.7332 15.1415 93.69 15.7668C91.3253 17.1566 88.891 18.1293 87.4305 20.5613C85.9004 23.1323 84.3703 25.6338 83.0488 28.2742C82.2838 29.4554 76.3024 43.0051 77.6239 43.283Z" fill="#EAE8E8"/>
<path d="M92.0903 107.487C93.5509 108.808 95.2201 108.669 96.8197 109.503C95.7765 110.406 94.5941 109.433 93.6204 110.058C92.5772 110.684 93.3422 112.629 91.4644 112.56C90.4907 112.56 88.4042 110.684 90.0038 110.058C90.9775 109.642 91.8121 108.877 90.7689 108.182C89.517 107.348 88.3346 106.306 87.1522 105.333C86.874 105.125 86.4567 104.569 86.109 104.361C85.7612 104.222 85.7612 105.194 85.6221 105.333C84.718 106.584 83.327 105.75 84.3007 107.696C84.9962 109.086 85.5526 111.17 86.6654 112.282C87.5 113.116 88.3346 113.672 88.2651 114.992C88.2651 116.521 87.2913 117.493 86.0394 116.312C85.5526 115.895 84.6484 115.061 84.718 114.436C84.7875 113.811 85.6221 113.185 85.4135 112.56C85.2048 112.004 84.3007 111.379 83.8834 110.962C83.3965 110.406 82.9097 109.78 82.4228 109.225C81.6578 108.46 79.919 107.835 80.1972 106.515C80.3363 105.82 80.8927 105.403 80.8927 104.639C80.8927 103.666 80.8232 102.693 80.8232 101.79C80.7536 100.33 80.2668 98.3849 81.5187 97.2731C82.8401 96.1614 84.092 96.7172 85.3439 97.4816C84.718 97.8985 83.9529 98.1764 83.6747 98.8713C83.327 99.5661 82.9097 100.191 82.1446 100.33C80.545 100.678 81.5187 105.055 82.2837 106.098C82.701 104.569 82.2142 102.346 83.0488 101.025C83.2574 101.512 83.1183 102.901 83.8138 102.971C85.0657 103.11 84.5789 101.442 84.6484 100.608C85.6917 101.998 86.5958 103.457 87.8478 104.708C89.0301 105.82 90.8384 106.376 92.0903 107.487Z" fill="#EAE8E8"/>
<path d="M85.7613 65.6574C85.4831 66.3522 84.3703 68.0199 84.718 68.7147C85.1353 69.5485 86.0395 68.5063 86.4568 68.0894C85.9004 70.2434 84.5789 72.05 83.953 74.1346C83.327 76.2886 83.6747 78.5121 83.2574 80.6662C81.4491 80.1798 82.7706 75.1074 82.9097 73.7871C83.0488 72.3279 83.327 70.8688 83.6052 69.4791C83.8834 68.0894 84.5094 66.6996 84.5789 65.2405C83.7443 65.5879 83.4661 66.4912 82.5619 66.8386C82.1446 67.0471 81.6578 67.0471 81.1709 66.9776C80.8927 66.9081 80.0581 68.0893 79.919 68.2978C78.8062 66.6996 79.3626 64.8235 79.6408 63.0169C79.7799 62.2526 79.8495 61.4883 80.0581 60.7934C80.2668 60.0985 80.8232 59.5427 80.8927 58.8478C79.5017 59.2647 79.6408 61.6272 77.9716 61.6967C77.2066 61.6967 76.0938 61.3493 76.1633 60.3765C76.3024 59.4732 77.4152 58.9868 77.2066 58.0835C76.9284 56.7632 80.1972 57.5276 80.6145 56.5548C81.3796 54.7482 83.8139 56.2074 84.7876 57.2496C85.344 57.875 84.9267 58.6394 85.2049 59.4037C85.344 59.8206 85.344 61.2798 84.4398 60.446C84.0225 60.0985 83.2575 58.5004 82.6315 58.5699C81.7273 58.6393 81.2405 60.7934 81.1014 61.4188C80.8927 62.3916 80.8232 63.4338 80.6145 64.4066C80.4754 65.1015 81.936 63.5033 82.0751 63.3643C82.5619 62.6 82.6315 61.6272 83.8139 61.4188C84.718 61.2103 85.0658 62.8085 85.4135 63.3643C86.109 62.5305 86.5263 60.9324 87.4305 60.3765C87.5 62.2526 85.7613 64.1287 85.7613 65.6574Z" fill="#EAE8E8"/>
<path d="M112.886 79.4154C110.73 79.068 110.452 78.9985 109.895 76.9139C108.991 77.5393 108.504 78.4426 107.878 79.2764C107.113 80.2492 106.07 80.9441 105.096 81.6389C104.122 82.3338 103.218 81.2915 102.175 81.5694C100.923 81.9169 100.158 81.5694 98.9758 81.7779C99.254 81.083 100.019 80.1797 100.019 79.4849C100.019 78.7205 99.254 78.4426 99.4626 77.6782C99.7408 76.5665 100.923 74.9683 102.175 76.0106C103.497 77.1224 100.575 78.3731 102.453 79.1374C103.149 79.4154 104.47 79.1374 104.957 79.7628C105.722 80.6661 106.209 80.1102 106.765 79.4154C107.461 78.5816 108.087 77.7477 108.782 76.9139C109.547 76.0801 109.617 75.8022 108.574 75.3852C106.696 74.6904 109.408 72.1889 110.73 72.6753C111.495 72.9532 111.495 74.065 111.773 74.6904C112.19 75.5242 113.234 75.3852 113.86 75.8716C115.598 77.1224 115.251 79.5543 112.886 79.4154Z" fill="#EAE8E8"/>
<path d="M114.694 94.0768C116.016 93.7989 119.632 92.6176 118.867 95.1191C118.658 95.8835 118.38 96.6478 117.754 97.2037C116.85 97.968 117.059 97.6206 117.059 98.7323C117.128 99.4967 116.294 100.261 115.668 100.539C114.764 100.886 114.068 100.053 113.164 100.261C111.564 100.608 109.13 101.72 107.67 100.747C108.574 99.9136 110.173 99.7746 111.356 99.7052C112.816 99.6357 113.86 98.4544 115.111 97.7596C115.181 97.6901 114.764 95.4665 114.625 95.3276C114.277 95.0496 113.79 95.2581 113.442 95.2581C112.816 95.3276 112.469 94.9801 111.982 94.6327C112.329 94.4243 114.555 93.382 114.694 94.0768Z" fill="#EAE8E8"/>
<path d="M105.792 108.53C106.348 108.599 107.53 109.016 108.017 108.669C108.852 108.182 109.2 107.487 110.243 107.279C111.773 107.001 113.86 107.696 112.955 109.711C112.19 111.448 110.173 112.768 108.713 111.17C108.156 110.614 108.087 109.989 107.113 109.989C106 110.058 105.583 109.642 104.818 108.877C105.166 108.808 105.444 108.669 105.792 108.53Z" fill="#EAE8E8"/>
<path d="M99.5322 60.7933C99.1844 61.6966 98.2803 65.9352 96.472 64.6845C95.7765 64.1981 96.4024 63.3643 96.0547 62.7389C95.846 62.3915 94.8723 63.2253 94.3855 62.9473C92.9249 61.9745 94.7332 59.5426 95.7765 59.1256C96.8197 58.7087 96.7502 59.4731 97.5152 59.6815C98.5585 59.8205 99.254 59.3341 99.5322 60.7933Z" fill="#EAE8E8"/>
<path d="M101.966 101.859C100.715 101.79 100.297 101.998 99.254 102.624C98.4889 103.11 97.4457 103.04 96.9588 102.137C96.3329 101.025 96.1938 100.817 95.0114 100.192C93.8986 99.5662 92.7163 99.0798 92.1599 97.968C94.5941 98.3154 96.7502 99.7746 99.1149 100.261C100.436 100.539 101.758 100.608 103.079 100.608C104.053 100.608 105.096 100.4 105.931 100.886C105.583 101.373 102.106 102.276 101.966 101.859Z" fill="#EAE8E8"/>
<path d="M100.854 111.24C98.2107 111.309 100.228 109.503 99.7408 108.391C99.4626 107.696 98.4889 107.696 98.8367 106.723C99.1149 105.959 99.8799 105.472 100.715 105.403C101.41 105.333 102.662 105.611 102.592 106.584C102.523 107.349 101.827 107.835 102.94 108.043C105.653 108.599 102.175 111.101 100.854 111.24Z" fill="#EAE8E8"/>
<path d="M97.6543 67.3945C97.6543 68.5758 97.0284 69.9655 95.6374 69.618C94.1073 69.2011 93.9682 70.7298 92.7163 71.1467C92.8554 70.3129 93.4118 69.757 93.6204 68.9232C93.9682 67.8114 93.69 66.6997 94.3159 65.6574C95.7765 63.4339 97.1675 66.2827 97.6543 67.3945Z" fill="#EAE8E8"/>
<path d="M103.705 117.285C101.827 117.146 99.9495 116.66 98.3498 115.548C97.7239 115.131 93.2726 112.699 94.3855 111.657C95.0114 111.031 98.9062 114.089 99.6017 114.506C100.575 115.131 101.619 115.756 102.731 116.034C103.914 116.312 105.027 115.965 106.139 116.173C105.513 117.007 104.679 117.077 103.705 117.285Z" fill="#EAE8E8"/>
<path d="M106.07 100.122C104.609 99.6356 102.731 100.122 101.41 99.4967C99.8104 98.7323 101.48 97.3426 102.592 97.2732C103.288 97.2037 103.983 97.5511 104.748 97.4816C105.792 97.4121 106.348 97.4816 107.183 98.107C107.67 98.4544 108.156 98.5239 107.948 99.1492C107.6 100.053 106.765 99.9831 106.07 100.122Z" fill="#EAE8E8"/>
<path d="M80.545 100.678C80.3363 102.207 80.3363 103.944 79.6408 105.403C78.8758 103.874 79.4322 102.137 79.4322 100.4C79.4322 99.1492 77.4152 99.6356 76.7197 98.8018C75.3287 97.2731 77.9021 96.4393 79.0844 96.9952C79.6408 97.2731 80.0581 97.6206 80.1972 98.1764C80.3363 98.6628 80.1972 100.608 80.545 100.678Z" fill="#EAE8E8"/>
<path d="M100.575 104.222C98.5585 105.403 96.8893 104.778 94.8723 103.944C92.9945 103.179 90.282 102.624 89.4474 100.678C91.3253 100.747 92.9249 102.068 94.6637 102.693C96.472 103.318 98.7671 104.013 100.575 104.222Z" fill="#EAE8E8"/>
<path d="M92.0903 107.488C89.8647 105.403 87.9173 103.318 87.0827 100.4C88.6824 102.137 89.9343 104.222 91.8121 105.75C93.6204 107.21 95.7765 107.349 97.7239 108.321C95.7765 108.877 93.9682 108.043 92.0903 107.488Z" fill="#EAE8E8"/>
<path d="M69.8342 89.6992C69.1387 89.5602 66.3567 89.5602 66.4263 88.518C66.4263 87.8926 66.774 86.5724 67.5391 86.7113C68.5128 86.8503 69.9038 87.2672 70.2515 88.24C70.4602 88.8654 73.5204 87.9621 74.0768 88.101C73.3813 89.4213 69.9733 89.1433 69.8342 89.6992Z" fill="#EAE8E8"/>
<path d="M91.1166 94.3547C91.1862 96.7172 88.265 98.6628 86.0394 98.1069C86.9436 96.7172 89.2387 96.9257 89.9342 95.4665C90.6993 93.8683 89.517 91.9227 90.3516 90.3246C91.0471 91.5058 90.9775 93.0345 91.1166 94.3547Z" fill="#EAE8E8"/>
<path d="M82.9793 68.9231C82.7011 71.0772 82.4229 73.1618 82.0751 75.3158C81.8665 76.7055 81.7969 79.068 80.4059 79.8323C79.8495 78.3732 80.9623 75.8022 81.2405 74.2735C81.5883 72.6059 81.6578 69.6875 82.8402 68.5062C82.9097 68.5757 82.9793 68.7842 82.9793 68.9231Z" fill="#EAE8E8"/>
<path d="M128.117 89.9078C128.117 90.5331 127.77 92.6872 126.726 92.2703C126.1 92.0618 124.362 91.1585 124.709 90.3247C125.196 88.935 128.117 87.1978 128.117 89.9078Z" fill="#EAE8E8"/>
<path d="M78.1803 101.442C77.9716 102.207 77.9716 103.318 77.137 103.666C76.372 104.013 75.3287 103.596 75.2592 102.693C75.1896 101.859 75.4678 101.025 76.2329 100.608C77.4152 99.9136 77.5543 100.539 78.1803 101.442Z" fill="#EAE8E8"/>
<path d="M64.8962 84.6269C64.2007 84.5574 59.2627 82.2644 60.5146 81.5695C61.3492 81.1526 63.0184 82.2644 63.7139 82.6118C64.7571 83.0982 66.2872 83.7236 64.8962 84.6269Z" fill="#EAE8E8"/>
<path d="M73.4509 60.307C73.4509 62.1831 70.5298 62.3221 70.3907 60.6544C70.2516 58.8478 73.3813 57.9445 73.4509 60.307Z" fill="#EAE8E8"/>
<path d="M79.2235 89.6298C79.2931 91.0195 76.9979 92.6872 76.372 90.8111C75.746 89.0044 79.2235 87.3368 79.2235 89.6298Z" fill="#EAE8E8"/>
<path d="M76.9284 84.7657C78.9453 84.7657 78.8758 88.0315 77.137 87.9621C75.6765 87.8926 74.8419 84.7657 76.9284 84.7657Z" fill="#EAE8E8"/>
<path d="M70.3907 66.2132C70.3907 68.5062 67.8173 67.5334 67.8173 65.7268C67.8173 63.2948 70.4602 64.1286 70.3907 66.2132Z" fill="#EAE8E8"/>
<path d="M88.6824 67.8114C88.126 69.479 87.5696 71.1467 86.9436 72.8143C86.6654 73.6482 86.2481 74.2735 85.7613 75.0379C85.6222 75.1769 85.1353 75.1768 85.2744 74.8989C86.4568 72.328 86.8741 69.896 88.6824 67.8114Z" fill="#EAE8E8"/>
<path d="M67.2609 65.1709C67.1218 67.3249 65.1744 67.1165 65.3831 64.9624C65.3831 64.8235 65.8699 63.0863 66.2177 63.2253C67.1218 63.5727 67.2609 64.1981 67.2609 65.1709Z" fill="#EAE8E8"/>
<path d="M107.183 95.3276C108.295 95.1886 109.756 95.2581 108.921 97.0647C108.782 97.4121 108.087 98.1764 107.6 97.6901C106.765 96.8562 106.696 96.3003 107.183 95.3276Z" fill="#EAE8E8"/>
<path d="M81.5187 94.4243C81.3796 95.6055 79.6408 96.3699 79.2931 94.9107C78.8062 92.9651 81.6578 92.4092 81.5187 94.4243Z" fill="#EAE8E8"/>
<path d="M100.575 104.291C100.715 104.083 101.132 102.901 101.48 102.971C102.245 103.04 103.01 103.388 103.566 103.874C104.401 104.569 103.01 104.986 102.523 105.056C101.827 105.125 100.993 104.708 100.575 104.291Z" fill="#EAE8E8"/>
</svg>
