<svg width="1440" height="493" viewBox="0 0 1440 493" fill="none" xmlns="http://www.w3.org/2000/svg">
<path d="M1009 263.5C1010.02 257.148 1019.19 241.704 1045.24 219.5M1094 184C1083.72 190.579 1074.59 196.847 1066.5 202.772M1094 184L1098 209.422M1094 184C1106.13 176.237 1115.4 170.015 1122.5 164.952M1150 133.5C1143.51 142.833 1153.09 143.143 1122.5 164.952M1150 133.5C1148.83 151.412 1138.09 169.492 1122.5 186.48M1150 133.5C1150.73 146.303 1150.21 167.367 1145.95 186.48C1144.11 194.772 1141.56 202.697 1138.1 209.422M1049 243.583C1032.72 253.359 1017.23 261.384 1005 267L1049 259C1055.93 256.989 1066.7 253.433 1078.5 248.784M1049 243.583L1078.5 248.784M1049 243.583L1045.24 219.5M1049 243.583C1057.07 238.734 1065.34 233.453 1073.5 227.822M1078.5 248.784C1088.84 244.709 1099.97 239.796 1110 234.348M1045.24 219.5C1051.36 214.287 1058.41 208.701 1066.5 202.772M1066.5 202.772L1073.5 227.822M1073.5 227.822L1110 234.348M1073.5 227.822C1081.89 222.03 1090.17 215.868 1098 209.422M1110 234.348C1116.04 231.07 1121.67 227.598 1126.5 224C1131.19 220.503 1135.01 215.444 1138.1 209.422M1098 209.422H1138.1M1098 209.422C1106.9 202.098 1115.23 194.408 1122.5 186.48M1122.5 164.952V186.48" stroke="#FFEBDE" stroke-opacity="0.2" stroke-width="7"/>
<path d="M608.5 277.5C612.515 269.812 621.922 253.396 640 241.502M768.5 180C763.256 187.529 749.162 201.848 729 209.412M768.5 180C760.422 197.85 745.723 213.709 728.175 227.365M768.5 180C767.989 192.152 764.914 213.026 757.087 230.5M736 256.5C729.324 260.283 720.017 263.715 709.5 266.76M736 256.5L703.5 244.202M736 256.5C745.295 251.233 752.14 241.546 757.087 230.5M640 241.502L646 271.994M640 241.502C647.487 236.576 656.29 231.739 666.5 227.365M646 271.994C634.655 276.348 622.838 275.201 614.5 277.5C627.286 276.107 661.31 277.706 681.724 273.5M646 271.994L681.724 273.5M646 271.994C663.859 265.141 684.263 255.808 703.5 244.202M681.724 273.5C691.275 271.532 700.801 269.279 709.5 266.76M666.5 227.365L671 256.5L709.5 266.76M666.5 227.365C676.465 223.096 687.77 219.268 700.5 216.228M700.5 216.228C704.679 215.229 709.011 214.316 713.5 213.5C718.99 212.65 724.169 211.225 729 209.412M700.5 216.228L703.5 244.202M703.5 244.202C712.066 239.034 720.4 233.416 728.175 227.365M729 209.412L728.175 227.365M728.175 227.365L757.087 230.5" stroke="#FFEBDE" stroke-opacity="0.2" stroke-width="7"/>
<path d="M554.5 336C582.9 340 603 343 609.5 344M554.5 336C545.458 334.408 537.138 332.5 529.5 330.365M554.5 336V322.722M609.5 344C601.659 336.366 586.858 323.201 571.5 312.286M609.5 344L554.5 321.496M544 296.5C537.696 294.093 530.065 291.957 522 290.099M544 296.5L526 309.834M544 296.5C552.382 299.7 562.047 305.567 571.5 312.286M462.25 283.75L467.5 281.5C475.211 282.208 487.788 283.719 501.233 286M462.25 283.75L457 286C460.267 292.533 470.024 303.453 488.5 313.854M462.25 283.75L488.5 294.491M501.233 286L488.5 294.491M501.233 286C508.107 287.166 515.207 288.534 522 290.099M488.5 294.491L507 302.06M488.5 313.854V296.5M488.5 313.854C493.903 316.895 500.051 319.892 507 322.722M522 290.099L507 302.06M507 302.06V322.722M507 302.06L526 309.834M507 322.722C513.731 325.464 521.215 328.048 529.5 330.365M526 309.834L529.5 330.365M526 309.834L554.5 321.496M571.5 312.286L554.5 321.496" stroke="#FFEBDE" stroke-opacity="0.2" stroke-width="7"/>
<path d="M831 283C833.995 294.851 850.504 319.136 892.5 339.112M998 368.5C989.327 367.381 968.723 363.913 946.716 358.097M998 368.5L946.716 341.35M998 368.5C992.191 361.529 981.182 349.797 967 337.205M916.5 300.5C907.246 295.326 898.336 291.467 890 288.634M916.5 300.5L892.5 312.647M916.5 300.5C927.066 306.408 937.263 313.316 946.716 320.5M890 288.634C864.828 280.079 844.889 280.872 836.5 283L862.944 297M890 288.634L862.944 297M862.944 297V320.5M862.944 297L892.5 312.647M892.5 312.647V339.112M892.5 312.647L919.5 326.941M892.5 339.112C900.538 342.935 909.51 346.601 919.5 349.991M919.5 349.991C924.114 351.556 928.944 353.063 934 354.5C938.241 355.785 942.504 356.984 946.716 358.097M919.5 349.991V326.941M919.5 326.941L946.716 320.5M919.5 326.941L946.716 341.35M946.716 320.5C953.973 326.015 960.79 331.692 967 337.205M946.716 358.097V341.35M946.716 341.35L967 337.205" stroke="#FFEBDE" stroke-opacity="0.2" stroke-width="7"/>
<path d="M301.5 436C286.058 435.916 266.309 435.568 245 434.851M301.5 436C298.357 434.087 284.502 427.714 252.935 416M301.5 436C291.196 443.437 270.959 454.323 245 461.619M168 468C152.15 466.019 139.128 462.5 128.5 458.128M168 468C168 461.6 174.333 440.91 177.5 431.365M168 468C184.37 470.046 200.213 469.674 215 467.767M86 416L102.5 407.5C112.411 404.296 129.171 400.519 149 398.858M86 416C93.2272 420.291 108.674 423.727 128.5 426.456M86 416C87.4786 426.474 98.3586 445.729 128.5 458.128M128.5 426.456C131 417.505 138.6 399.455 149 398.858M128.5 426.456C142.993 428.45 159.827 430.067 177.5 431.365M128.5 426.456C125.667 435.969 121.7 455.622 128.5 458.128M149 398.858C161.312 397.828 174.808 397.613 188.582 398.858M177.5 431.365C178.721 420.258 182.648 398.208 188.582 398.858M177.5 431.365C189.763 432.265 202.43 433.011 215 433.622M188.582 398.858C200.204 399.909 212.025 402 223.5 405.517M215 433.622C215.833 423.593 218.7 403.93 223.5 405.517M215 433.622C225.151 434.116 235.239 434.522 245 434.851M215 433.622C212.167 442.593 208.2 461.98 215 467.767M223.5 405.517C225.512 406.133 227.513 406.794 229.5 407.5C238.215 410.597 246.002 413.427 252.935 416M245 434.851C244.79 427.497 246.083 413.432 252.935 416M245 434.851C242.355 441.724 238.652 456.701 245 461.619M215 467.767C225.608 466.398 235.674 464.24 245 461.619" stroke="#FFEBDE" stroke-opacity="0.2" stroke-width="7"/>
<path d="M230 341C228.37 328.905 228.633 304.81 236.411 284.5M281 233C271.129 238.421 263.014 244.943 256.376 252.092M281 233L296.5 263.266M281 233C287.704 229.004 294.933 224.831 302 220.826M325.5 270.5C321.452 277.143 316.779 283.506 311.682 289.5M325.5 270.5L296.5 263.266M325.5 270.5C330.93 261.589 334.377 251.975 336.466 242.7C340.376 225.33 339.521 209.149 338 201C336.85 201.612 335.507 202.331 334 203.142M234 341C245.887 336.885 271.447 325.321 284.528 315.264M234 337C240.286 330.202 248.015 321.609 256.376 312M334 203.142C326.333 207.27 314.419 213.788 302 220.826M334 203.142C331.035 212.976 322.66 227.059 311.682 242.7M256.376 312L284.528 315.264M256.376 312L236.411 284.5M256.376 312C262.515 304.945 268.994 297.343 275.493 289.5M284.528 315.264C294.119 307.891 303.452 299.177 311.682 289.5M236.411 284.5C240.688 273.331 247.087 262.097 256.376 252.092M256.376 252.092L275.493 289.5M275.493 289.5H311.682M275.493 289.5C282.612 280.908 289.756 272.028 296.5 263.266M296.5 263.266C301.887 256.267 307.019 249.343 311.682 242.7M302 220.826L311.682 242.7" stroke="#FFEBDE" stroke-opacity="0.2" stroke-width="7"/>
<path d="M-17.5 489.5C71.3333 410.167 322.2 256.8 615 278C981 304.5 1318 229 1488 68.5" stroke="#FFEBDE" stroke-opacity="0.2" stroke-width="7"/>
<path d="M1383.5 244.5C1414.3 256.5 1427 266.167 1429.5 269.5M1383.5 244.5C1374.24 243.152 1364.04 241.106 1353.5 238.639M1383.5 244.5L1362.5 265.26M1429.5 269.5C1406.42 271.125 1383.79 269.265 1362.5 265.26M1429.5 269.5C1416.59 276.24 1394.16 284.311 1368.5 286.824M1236.5 212.5V227C1245.18 233.075 1236.91 235.912 1268.57 258M1236.5 212.5L1257.5 209.5C1263.88 211.855 1272.58 214.913 1282.68 218.26M1236.5 212.5C1243.55 217.757 1253.6 224.21 1266 230.871M1282.68 218.26L1266 230.871M1282.68 218.26C1293.12 221.72 1305.06 225.489 1317.5 229.106M1266 230.871L1268.57 258M1266 230.871C1274.47 235.421 1284.04 240.069 1294.51 244.5M1268.57 258C1273.39 261.361 1279.13 265.168 1286 269.5C1288.8 271.266 1291.64 272.882 1294.51 274.356M1317.5 229.106L1294.51 244.5M1317.5 229.106C1329.34 232.553 1341.64 235.862 1353.5 238.639M1294.51 244.5V274.356M1294.51 244.5C1306.1 249.409 1318.79 254.051 1332.31 258M1294.51 274.356C1306.76 280.652 1319.58 284.364 1332.31 286.191M1353.5 238.639L1332.31 258M1332.31 258V286.191M1332.31 258C1341.98 260.828 1352.08 263.301 1362.5 265.26M1332.31 286.191C1344.64 287.961 1356.9 287.96 1368.5 286.824M1362.5 265.26L1368.5 286.824" stroke="#FFEBDE" stroke-opacity="0.2" stroke-width="7"/>
<path d="M1332 171L1371 152.5L1381 145.512M1332 171C1332.32 163.12 1335.18 148.644 1342.66 130.5M1332 171C1338.92 164.918 1347.27 156.912 1356.17 147.5M1384 64.5C1378.48 70.9025 1373.51 77.2579 1369.03 83.5M1384 64.5L1402.99 88M1384 64.5C1394.21 53.8215 1402.95 43.9754 1410.11 35.5M1431.5 8C1428.46 12.5556 1421.18 22.3871 1410.11 35.5M1431.5 8C1431.5 24.7389 1426.41 42.4787 1418.33 60M1431.5 8C1436.76 18.8593 1445.01 38.9539 1448 55.4114M1342.66 130.5L1356.17 147.5M1342.66 130.5C1345.61 123.344 1349.28 115.617 1353.79 107.5M1356.17 147.5L1381 145.512M1356.17 147.5C1361 142.389 1365.99 136.864 1371 131.008M1381 145.512L1396.75 134.506M1353.79 107.5L1371 131.008M1353.79 107.5C1358.07 99.8004 1363.12 91.7492 1369.03 83.5M1371 131.008L1396.75 134.506M1371 131.008C1376.27 124.84 1381.56 118.305 1386.7 111.5M1396.75 134.506L1412.5 123.5C1415.38 120.525 1419.22 116.328 1423.34 111.5M1369.03 83.5L1386.7 111.5M1386.7 111.5H1423.34M1386.7 111.5C1392.39 103.955 1397.9 96.0772 1402.99 88M1423.34 111.5C1428.27 105.733 1433.59 99.0643 1438.11 92.5M1402.99 88L1438.11 92.5M1402.99 88C1408.75 78.8584 1413.98 69.4611 1418.33 60M1438.11 92.5C1442.53 86.0884 1446.2 79.7761 1448 74.5C1449.63 69.7249 1449.37 62.9497 1448 55.4114M1410.11 35.5L1418.33 60M1418.33 60L1448 55.4114" stroke="#FFEBDE" stroke-opacity="0.2" stroke-width="7"/>
</svg>
