<svg width="257" height="122" viewBox="0 0 257 122" fill="none" xmlns="http://www.w3.org/2000/svg">
<g clip-path="url(#clip0)">
<path d="M170.016 121.485L168.992 121.482C165.084 120.524 163.964 115.471 164.895 112.079C166.146 108.124 166.837 103.983 168.397 100.136C169.218 98.8329 170.868 99.4648 171.574 100.525C174.635 105.094 176.146 110.452 177.265 115.78C177.452 117.934 176.005 120.479 173.766 120.887C172.455 120.818 171.067 120.436 170.016 121.485V121.485Z" fill="#FACFE2"/>
<path d="M181.177 118.6C177.727 118.861 178.641 113.496 178.111 111.278C179.672 111.343 180.172 113.373 181.522 113.906C182.748 114.441 184.602 114.712 185.044 116.168C184.517 117.693 182.509 117.991 181.177 118.6Z" fill="#FACFE2"/>
<path d="M163.038 118.609C161.255 118.49 158.029 117.224 158.976 115.007C161.053 114.013 161.823 111.819 163.004 110.053C164.904 109.958 162.887 112.468 163.125 113.378C162.493 114.887 164.655 117.646 163.038 118.609Z" fill="#FACFE2"/>
<path d="M186.798 113.958C180.94 113.326 176.341 107.622 174.961 102.071C173.487 100.981 172.353 98.3034 174.477 97.3046C180.238 98.3795 186.015 99.8275 191.187 102.638C193.487 106.391 191.198 112.882 186.798 113.958Z" fill="#FACFE2"/>
<path d="M156.883 113.192C153.745 113.621 148.783 112.383 149.423 108.223C151.44 102.778 157.708 101.302 161.816 97.9352C163.275 96.9765 166.721 96.2683 166.349 98.9553C163.46 103.887 163.052 110.988 156.883 113.192Z" fill="#FACFE2"/>
<path d="M148.109 107.39C145.978 107.481 143.332 103.354 145.964 102.364C147.284 102.776 151.178 102.335 149.592 104.377C148.864 105.275 149.212 106.796 148.109 107.39Z" fill="#FACFE2"/>
<path d="M219.689 104.985C218.264 105.181 216.469 105.512 215.804 103.918C213.874 104.679 211.799 104.718 210.624 102.642C207.827 95.9915 212.872 89.5525 217.481 85.2712C219.628 84.4334 222.696 85.4703 222.207 88.3552C223.289 93.8161 226.131 101.968 219.689 104.985Z" fill="#FACFE2"/>
<path d="M195.013 104.712C193.277 104.656 192.718 101.968 191.428 100.967C192.036 99.5066 194.58 99.4113 195.83 98.2235C197.812 99.649 196.602 103.301 195.013 104.712Z" fill="#FACFE2"/>
<path d="M227.638 104.534C226.618 104.641 223.826 105.169 224.13 103.291C225.244 101.133 225.519 98.7395 225.379 96.3494C228.16 96.0402 227.378 100.768 229.472 102.092C230.964 103.464 228.934 104.484 227.638 104.534Z" fill="#FACFE2"/>
<path d="M234.859 102.704C233.437 102.954 231.75 102.882 230.748 101.687C227.576 96.9922 226.733 91.2125 224.085 86.2484C223.448 84.5796 226.252 84.1679 227.307 84.8844C230.801 87.1885 234.457 89.2296 238.265 90.9843C240.95 92.0551 243.226 95.0901 242.487 98.0419C241.555 100.131 238.96 99.8923 237.042 99.8169C236.156 100.602 236.306 102.594 234.859 102.704Z" fill="#FACFE2"/>
<path d="M207.638 102.458C205.03 102.791 199.963 97.4378 204.969 97.1257C206.422 96.8361 206.994 95.0099 208.448 94.7832C209.74 95.2695 209.042 97.0604 208.652 98.0082C207.829 99.372 208.917 101.399 207.638 102.458Z" fill="#FACFE2"/>
<path d="M151.166 101.49C149.15 101.564 147.155 100.665 145.299 99.9186C143.739 98.6855 144.705 96.4431 144.124 94.7862C143.422 92.8677 144.768 90.8223 146.719 90.4851C151.717 88.3009 156.857 91.1202 161.927 91.4658C164.411 91.1138 164.543 94.9634 162.571 95.6875C158.411 96.9462 155.771 101.214 151.166 101.49Z" fill="#FACFE2"/>
<path d="M190.338 98.5831C185.543 99.0334 181.004 96.6517 176.842 94.5928C174.907 94.1164 173.583 90.9605 176.08 90.2822C181.626 87.1483 188.135 83.1732 194.666 85.7027C196.222 87.7402 195.476 90.7502 195.604 93.166C197.058 96.3571 192.947 98.4787 190.338 98.5831Z" fill="#FACFE2"/>
<path d="M170.259 98.5375C165.5 98.9203 163.287 91.6935 166.647 88.7213C168.908 87.8441 171.689 88.3067 173.153 90.3508C175.652 93.0065 174.011 98.0936 170.259 98.5375Z" fill="#FACFE2"/>
<path d="M204.982 96.0906C201.382 97.1901 197.986 93.4641 199.333 89.9802C196.649 89.1612 195.579 83.9824 198.865 82.9893C203.838 82.2388 208.699 80.5437 213.786 80.5606C215.205 81.5788 216.297 84.0858 214.247 85.1757C209.885 87.7418 209.127 93.4959 204.982 96.0906Z" fill="#FACFE2"/>
<path d="M244.765 93.8891C242.965 93.3174 241.649 90.9146 239.717 90.0045C242.002 89.1135 245.078 90.6423 247.474 89.1384C248.429 90.5283 246.2 92.949 244.765 93.8891Z" fill="#FACFE2"/>
<path d="M126.656 92.5658C125.021 92.9668 123.499 91.4284 121.84 92.1627C120.356 92.9791 118.112 92.7186 117.674 90.7963C115.804 86.0325 118.658 81.1773 121.176 77.2491C122.293 74.9138 125.435 76.1608 127.452 76.0989C128.797 79.0404 129.264 82.3663 130.784 85.2779C132.277 88.6441 130.129 92.1934 126.656 92.5658Z" fill="#FACFE2"/>
<path d="M134.484 90.5271C133.884 90.5091 133.012 90.3713 132.778 89.7389C132.899 86.5219 132.276 83.3097 131.059 80.343C132.537 81.8673 133.631 84.4 135.944 85.225C137.171 86.0328 139.97 85.6701 139.07 87.8754C137.897 89.1636 136.319 90.3808 134.484 90.5271Z" fill="#FACFE2"/>
<path d="M144.19 89.4264C141.543 89.722 142.412 82.8258 145.251 85.0277C146.658 86.8013 150.498 85.6163 151.038 87.6158C149.022 88.3025 146.065 87.7042 144.19 89.4264Z" fill="#FACFE2"/>
<path d="M164.018 89.2313C161.967 89.7104 160.27 88.3417 158.445 87.7373C154.379 86.8981 149.975 85.6475 147.099 82.4965C145.522 79.8249 148.185 77.4778 148.377 74.8718C148.939 72.2902 152.532 71.1138 154.465 73.1056C158.666 75.5376 158.459 81.0532 161.951 84.038C162.978 85.5051 165.192 87.4045 164.018 89.2313Z" fill="#FACFE2"/>
<path d="M243.802 88.734C238.879 89.1419 234.291 86.5549 230.222 84.1023C227.948 82.6387 225.42 79.7988 227.117 77.0013C233.018 75.6962 239.448 73.0661 245.381 75.7711C247.819 77.0604 247.859 79.9421 247.267 82.2602C248.475 84.9261 246.218 87.729 243.802 88.734Z" fill="#FACFE2"/>
<path d="M174.538 87.606C173.147 87.7232 170.486 87.1444 171.163 85.1274C171.795 80.4827 173.709 76.203 175.453 71.9182C177.086 67.0572 184.948 65.6551 186.189 71.3473C189.786 72.0873 190.985 77.0357 188.134 79.2983C185.149 84.1345 179.497 85.7923 174.538 87.606Z" fill="#FACFE2"/>
<path d="M167.755 86.4885C162.595 84.7135 159.625 78.76 158.618 73.6023C157.263 70.0687 159.489 65.3516 163.627 65.6945C165.601 64.2266 169.174 63.4255 170.906 65.6406C173.981 72.4245 171.517 80.5704 167.755 86.4885Z" fill="#FACFE2"/>
<path d="M115.251 86.0705C113.992 85.6332 110.267 85.7578 110.623 83.7025C113.829 83.1685 115.826 80.2133 118.378 78.9476C117.414 81.246 116.729 84.0837 115.251 86.0705Z" fill="#FACFE2"/>
<path d="M141.338 84.7112C136.31 85.3497 132.861 80.3203 130.382 76.5619C128.902 74.8558 129.829 72.4128 131.054 70.8985C135.974 70.6561 141.404 70.7182 145.92 72.9576C148.15 74.2113 146.824 76.7767 145.648 78.2352C145.218 80.8312 144.43 84.1512 141.338 84.7112Z" fill="#FACFE2"/>
<path d="M219.871 82.7905C213.985 82.9603 214.052 73.2408 219.775 73.1522C224.052 72.395 226.134 78.015 224.225 81.164C222.921 81.9786 221.382 82.5267 219.871 82.7905Z" fill="#FACFE2"/>
<path d="M193.956 82.7911C191.879 82.699 189.788 82.7163 187.711 82.6171C189.134 81.2946 189.834 77.916 192.002 78.0738C192.811 79.2558 196.025 81.5311 193.956 82.7911Z" fill="#FACFE2"/>
<path d="M109.178 82.2483C105.026 82.5838 102.01 78.0569 103.722 74.2943C101.814 72.1113 102.431 67.9398 105.592 67.3427C110.196 67.2952 115.227 67.3981 119.368 69.6435C119.611 71.0547 120.947 72.5389 119.783 73.9018C116.677 77.1429 113.679 80.9509 109.178 82.2483Z" fill="#FACFE2"/>
<path d="M78.43 79.8269C73.8618 80.2638 75.7718 75.0072 76.2279 72.9825C77.4634 74.294 78.9409 75.7997 80.911 76.4324C82.7661 78.142 80.1269 79.7128 78.43 79.8269Z" fill="#FACFE2"/>
<path d="M200.425 79.4873C197.003 79.8599 191.304 78.2792 191.512 73.9108C193.554 72.1331 190.897 68.591 193.899 67.4619C201.015 65.6124 206.126 72.2202 212.487 74.0033C214.766 74.3269 214.711 76.4017 213.754 78.0123C209.244 77.7593 204.844 78.8075 200.425 79.4873Z" fill="#FACFE2"/>
<path d="M71.688 78.2339C69.8031 77.1934 67.5653 77.9633 65.6462 77.4379C61.4832 71.6278 64.4127 63.9891 67.5394 58.4236C68.0372 56.5133 69.94 56.1993 71.5413 56.8847C72.0501 62.5701 75.4681 67.7556 74.8891 73.5755C74.8181 75.5594 73.7919 77.7899 71.688 78.2339Z" fill="#FACFE2"/>
<path d="M84.2966 76.6216C79.368 75.7799 76.2231 70.5952 75.5269 65.9467C75.2841 62.7007 73.3555 59.8089 73.3134 56.5494C76.642 53.8335 78.4051 59.1378 80.8751 60.4272C84.4992 62.0765 86.6667 65.4959 89.2372 68.3755C91.2017 70.1647 90.7777 74.8169 87.4511 74.4018C85.9924 74.4629 85.8228 76.6213 84.2966 76.6216Z" fill="#FACFE2"/>
<path d="M256.141 72.1299C255.23 74.6312 253.139 77.2597 250.174 76.8503C247.172 77.0399 245.926 73.1312 247.234 70.8711C247.976 68.3973 252.368 68.4471 251.868 65.3566C250.193 53.1818 238.01 44.3319 226.306 43.1654C220.557 42.6944 214.178 47.0779 214.814 53.3116C215.226 56.1431 212.426 54.5008 212.272 52.8637C209.684 49.5131 211.678 45.0821 214.899 43.028C219.686 39.0059 226.431 40.0417 231.943 41.7477C232.439 41.5929 233.929 42.686 234.074 41.7818C227.253 38.2582 219.361 36.7202 211.747 37.9761C208.449 38.869 204.95 40.2765 203.235 43.4656C200.545 47.2208 199.797 52.4737 195.706 55.1105C192.293 56.9729 187.896 54.1067 186.909 50.7303C188.151 47.1668 191.964 51.225 193.729 48.6305C196.274 44.8842 199.198 40.7147 203.73 39.3148C204.25 39.251 205.168 38.1602 204.185 38.2413C195.38 39.8878 186.244 43.3192 180.417 50.4507C178.901 52.041 178.539 54.3668 178.508 56.4696C181.335 58.4058 185.13 60.8529 184.217 64.8837C183.923 66.6967 181.692 65.8044 180.608 65.2161C180.58 63.7868 181.021 62.0046 179.972 60.8149C178.502 59.0878 175.696 61.0848 174.264 59.2505C171.268 56.5235 172.474 51.8478 175.109 49.3351C185.104 37.991 201.415 35.7388 215.675 35.3318C215.609 34.1053 213.737 34.9743 212.923 34.7388C208.108 33.4614 203.072 34.2164 198.169 34.2864C182.247 34.7655 165.447 42.1944 157.169 56.3294C156.192 58.4949 155.299 61.4812 157.294 63.366C159.315 65.7545 157.786 70.8279 154.282 70.277C150.924 70.2465 148.846 66.494 149.861 63.487C151.813 46.6667 168.726 36.5221 184.165 34.0715C179.681 32.9746 174.243 35.4327 169.622 36.5782C153.482 40.6984 137.287 44.6715 120.898 47.7162C108.996 48.9622 97.0781 50.4459 85.0967 50.6099C69.8884 51.4011 54.9165 47.8566 40.2363 44.3106C33.3531 41.4722 26.1843 38.9735 20.1202 34.5218C10.5982 29.0531 2.09173 20.1811 0.319761 8.98989L0.322782 7.93143C0.833418 4.81579 2.30009 0.327332 6.00681 0.0161808L7.67302 0.0209374C11.5114 0.997101 10.8016 6.0286 7.74522 7.43038C3.6274 8.69158 5.60495 14.0805 6.92931 16.9332C10.0074 21.0197 13.5992 24.9817 18.2763 27.2868C38.0133 39.8792 61.4783 45.5276 84.7748 45.6547C106.808 45.3259 129.193 43.4361 150.37 37.1201C161.709 33.9048 173.333 31.532 185.035 30.064C200.261 27.2141 216.299 28.6098 230.297 35.4412C242.353 41.852 253.889 52.3367 256.157 66.4203L256.141 72.1299H256.141Z" fill="#FACFE2"/>
<path d="M62.112 76.1526C60.5654 75.9454 58.1897 75.1296 58.2767 73.2903C59.4005 72.804 60.3239 71.4287 61.6444 71.5561C62.5043 72.7872 63.5715 74.9957 62.112 76.1526Z" fill="#FACFE2"/>
<path d="M228.91 74.2273C227.011 74.9936 223.784 73.8723 225.096 71.3325C228.27 66.2614 230.341 59.3383 236.618 57.3116C239.652 56.404 243.584 57.8351 244.03 61.2845C246.094 63.356 247.164 66.8049 244.789 69.0899C240.099 72.2193 234.2 72.6501 228.91 74.2273Z" fill="#FACFE2"/>
<path d="M125.367 73.9318C121.692 73.8257 119.072 68.7521 121.801 65.9458C123.735 64.5385 126.648 64.9898 128.476 66.3845C130.235 69.0754 128.74 73.5101 125.367 73.9318Z" fill="#FACFE2"/>
<path d="M245.468 73.8666C244.725 73.6989 242.618 74.2758 242.635 73.0332C243.531 72.2571 244.349 71.1193 245.589 70.8851C246.422 71.6382 246.742 73.3853 245.468 73.8666Z" fill="#FACFE2"/>
<path d="M216.31 72.1537C212.105 72.0555 208.679 68.8656 205.074 67.0019C201.441 65.2593 197.881 61.5351 198.892 57.1806C199.736 55.1454 201.976 55.1611 203.788 54.9378C203.397 51.9525 206.446 50.574 208.962 51.4857C213.879 56.2162 213.97 63.5721 216.677 69.4736C216.938 70.33 217.354 71.6904 216.31 72.1537Z" fill="#FACFE2"/>
<path d="M55.5464 71.6271C52.1135 71.636 49.2026 67.0534 50.5653 63.8307C53.4205 60.1552 57.7788 58.0274 61.8128 55.8986C63.2874 55.1824 66.8283 54.0851 66.7015 56.8195C64.5613 62.6233 62.0842 69.5452 55.5464 71.6271Z" fill="#FACFE2"/>
<path d="M221.981 71.1977C219.254 71.6608 218.509 68.6605 217.796 66.6884C215.741 62.2482 214.505 56.9454 216.686 52.3097C217.894 49.28 222.039 49.2429 224.248 51.1516C227.556 50.063 229.989 53.4971 229.22 56.4605C228.767 60.5835 226.291 64.0805 224.602 67.7523C224.169 69.1196 223.594 70.9108 221.981 71.1977Z" fill="#FACFE2"/>
<path d="M147.043 70.5221C143.909 70.322 140.923 69.1734 137.777 69.0595C136.892 67.8819 139.177 67.8069 139.802 67.8203C142.484 68.2266 144.681 65.6357 147.242 66.0697C147.622 67.1479 148.407 69.8615 147.043 70.5221Z" fill="#FACFE2"/>
<path d="M174.6 69.927C172.417 69.5758 173.542 65.2868 172.396 63.6935C173.706 62.7764 178.968 62.8613 178.871 65.6401C177.281 66.9015 176.144 68.6492 174.6 69.927Z" fill="#FACFE2"/>
<path d="M92.4252 68.289C90.5884 68.3746 90.0381 65.7782 88.6875 64.7509C85.9611 61.7192 90.7936 63.5119 92.1307 64.355C94.6179 64.5183 94.192 67.3824 92.4252 68.289Z" fill="#FACFE2"/>
<path d="M119.127 66.6913C115.184 64.5048 110.654 63.8158 106.63 61.8203C103.176 60.9501 103.315 55.6629 106.311 54.2632C106.054 51.1477 110.024 50.7138 112.321 50.7413C117.134 53.4548 117.679 59.6206 120.885 63.7098C121.918 64.932 119.994 66.1179 119.127 66.6913Z" fill="#FACFE2"/>
<path d="M138.126 66.4611C135.302 66.2455 129.703 68.2042 129.015 64.0687C131.945 59.4771 133.155 53.265 138.409 50.5942C141.024 48.6317 146.185 50.4835 145.166 54.1806C148.208 54.5856 149.573 57.9258 148.212 60.6636C146.788 64.8072 141.975 65.9498 138.126 66.4611Z" fill="#FACFE2"/>
<path d="M111.148 65.99C108.706 66.0973 106.22 64.7729 103.837 65.8782C101.073 66.9894 101.807 60.699 104.321 62.1983C106.396 63.4981 108.711 64.2998 111.01 65.127C111.544 65.1448 111.652 65.9518 111.148 65.99Z" fill="#FACFE2"/>
<path d="M199.845 65.7955C197.886 65.4146 195.632 64.5945 193.818 65.8063C192.852 64.048 194.199 60.5803 196.167 59.4669C197.866 58.7 197.458 61.746 198.128 62.4707C198.44 63.537 200.63 64.6833 199.845 65.7955Z" fill="#FACFE2"/>
<path d="M125.999 62.7963C123.254 63.8539 122.784 60.922 122.212 59.1089C121.437 55.9523 118.942 52.7581 120.513 49.3983C124.332 49.1271 128.161 47.6856 131.871 47.7102C132.805 53.1847 129.702 58.8621 125.999 62.7963Z" fill="#FACFE2"/>
<path d="M94.4945 61.986C88.0205 62.1448 82.6607 57.8397 77.4943 54.484C76.6506 54.0922 76.8488 52.5168 77.8428 52.5709C83.3235 52.0853 88.8096 53.0172 94.2839 52.373C96.839 51.6483 97.8426 54.8522 96.778 56.6606C95.6483 58.3687 97.0914 61.3337 94.4945 61.986Z" fill="#FACFE2"/>
<path d="M49.5278 61.8531C47.7648 62.2397 46.3581 59.6292 47.2092 58.2141C49.799 58.408 52.3866 58.5669 54.8514 57.5901C55.8836 57.325 55.4016 58.5872 54.6409 58.5524C52.4861 58.8517 51.353 60.9374 49.5278 61.8531Z" fill="#FACFE2"/>
<path d="M119.616 57.1898C117.4 56.1064 116.808 52.5096 115.276 50.4256C116.197 49.9433 118.432 49.3132 119.419 50.2859C119.153 52.5933 119.48 54.8907 119.616 57.1898Z" fill="#FACFE2"/>
<path d="M101.971 56.391C100.511 56.8438 97.3036 56.4569 97.842 54.253C99.6469 53.8851 102.158 53.1788 103.574 54.703C103.688 55.6405 102.807 56.2652 101.971 56.391Z" fill="#FACFE2"/>
<path d="M53.9458 55.9834C48.8728 58.298 43.205 53.1737 46.1455 48.2279C51.8693 48.4494 57.432 50.3584 63.1693 50.7594C64.8544 50.6873 64.8969 53.7556 63.1583 53.7856C60.1429 54.7049 57.0971 55.6614 53.9458 55.9834Z" fill="#FACFE2"/>
<path d="M232.691 56.256C230.255 56.8575 232.3 53.3219 231.503 52.0304C233.454 50.6488 237.524 52.1548 237.706 54.6639C236.354 55.7652 234.259 55.4398 232.691 56.256Z" fill="#FACFE2"/>
<path d="M71.885 54.1696C70.2412 54.5053 66.6125 53.6533 66.8122 51.5299C69.2445 51.3224 71.5942 52.2453 74.0163 52.3199C74.6686 53.5411 72.7282 53.9202 71.885 54.1696Z" fill="#FACFE2"/>
<path d="M133.806 51.5928C133.471 50.594 133.312 48.2971 133.857 46.9465C135.115 46.1853 137.304 46.9073 138.118 47.9914C137.25 49.516 135.236 50.4662 133.806 51.5928Z" fill="#FACFE2"/>
<path d="M145.413 48.5813C144.394 49.0656 141.187 48.7184 143.3 47.3163C148.056 44.2757 153.679 42.8113 158.912 40.7559C159.652 40.9026 161.744 39.6659 161.944 40.732C156.155 42.7251 150.912 46.0371 145.413 48.5813Z" fill="#FACFE2"/>
</g>
<defs>
<clipPath id="clip0">
<rect width="256" height="121" fill="white" transform="translate(255.999 121.73) rotate(-179.836)"/>
</clipPath>
</defs>
</svg>
